{
.appVersion = "1356";
copyright = "Copyright 2021 Google Inc. All Rights Reserved.";
customParameters = (
{
name = Axes;
value = (
{
Name = Weight;
Tag = wght;
}
);
},
{
name = "Enforce Compatibility Check";
value = 1;
},
{
name = glyphOrder;
value = (
.notdef,
NULL,
CR,
space,
u1E290,
u1E291,
u1E292,
u1E293,
u1E294,
u1E295,
u1E296,
u1E297,
u1E298,
u1E299,
u1E29A,
u1E29B,
u1E29C,
u1E29D,
u1E29E,
u1E29F,
u1E2A0,
u1E2A1,
u1E2A2,
u1E2A3,
u1E2A4,
u1E2A5,
u1E2A6,
u1E2A7,
u1E2A8,
u1E2A9,
u1E2AA,
u1E2AB,
u1E2AC,
u1E2AD,
u1E2AE,
breathbottom.comp,
"breathbottom-I.comp",
"breathbottom-AE.comp",
uni25CC,
nbspace
);
},
{
name = description;
value = "Designed by Monotype design team.";
},
{
name = license;
value = "This Font Software is licensed under the SIL Open Font License, Version 1.1. This Font Software is distributed on an \"AS IS\" BASIS, WITHOUT WARRANTIES OR CONDITIONS OF ANY KIND, either express or implied. See the SIL Open Font License for the specific language, permissions and limitations governing your use of this Font Software.";
},
{
name = licenseURL;
value = "http://scripts.sil.org/OFL";
},
{
name = vendorID;
value = GOOG;
},
{
name = unicodeRanges;
value = (
0,
1,
45,
57
);
},
{
name = trademark;
value = "Noto is a trademark of Google Inc.";
},
{
name = "Has WWS Names";
value = 1;
},
{
name = versionString;
value = "Version 2.000";
},
{
name = fsType;
value = (
);
},
{
name = codePageRanges;
value = (
"1252"
);
},
{
name = "Variable Font Origin";
value = "E40B9561-B6E0-4D94-A2F7-63596B9AF675";
},
{
name = variableFileName;
value = NotoSerifTotoVar;
},
{
name = "Variable Font Family Name";
value = "Noto Serif Toto Var";
},
{
name = "TrueType Curve Error";
value = 0.3;
},
{
name = panose;
value = (
2,
2,
5,
2,
6,
5,
5,
2,
2,
4
);
}
);
date = "2021-12-08 13:42:16 +0000";
designer = "Monotype Design Team";
designerURL = "http://www.monotype.com/studio";
familyName = "Noto Serif Toto";
fontMaster = (
{
alignmentZones = (
"{800, 15}",
"{720, 12}",
"{622, 12}",

glyphs = (
{
glyphname = .notdef;
lastChange = "2021-12-16 15:11:45 +0000";
layers = (
{
layerId = "E40B9561-B6E0-4D94-A2F7-63596B9AF675";
paths = (
{
closed = 1;
nodes = (
"505 0 LINE",
"505 714 LINE",
"94 714 LINE",
"94 0 LINE"
);
},
{
closed = 1;
nodes = (
"145 663 LINE",
"454 663 LINE",
"454 51 LINE",
"145 51 LINE"
);
}
);
width = 600;
},
{
layerId = "D419D424-3725-4B78-A608-932C6DF68265";
paths = (
{
closed = 1;
nodes = (
"505 0 LINE",
"505 714 LINE",
"94 714 LINE",
"94 0 LINE"
);
},
{
closed = 1;
nodes = (
"145 663 LINE",
"454 663 LINE",
"454 51 LINE",
"145 51 LINE"
);
}
);
width = 600;
}
);
script = "";
category = Separator;
subCategory = Other;
},
{
glyphname = u1E290;
lastChange = "2021-12-16 15:11:45 +0000";
layers = (
{
layerId = "E40B9561-B6E0-4D94-A2F7-63596B9AF675";
paths = (
{
closed = 1;
nodes = (
"552 -250 LINE",
"591 -163 LINE",
"543 -100 OFFCURVE",
"472 -25 OFFCURVE",
"408 41 CURVE",
"384 -13 LINE",
"535 64 OFFCURVE",
"618 174 OFFCURVE",
"618 325 CURVE SMOOTH",
"618 493 OFFCURVE",
"509 632 OFFCURVE",
"335 632 CURVE SMOOTH",
"166 632 OFFCURVE",
"48 501 OFFCURVE",
"48 306 CURVE SMOOTH",
"48 177 OFFCURVE",
"100 91 OFFCURVE",
"172 91 CURVE SMOOTH",
"208 91 OFFCURVE",
"236 110 OFFCURVE",
"236 150 CURVE SMOOTH",
"236 166 OFFCURVE",
"231 182 OFFCURVE",
"221 193 CURVE",
"121 193 LINE",
"121 154 LINE",
"153 178 LINE",
"119 192 OFFCURVE",
"104 242 OFFCURVE",
"104 298 CURVE SMOOTH",
"104 441 OFFCURVE",
"203 540 OFFCURVE",
"349 540 CURVE SMOOTH",
"484 540 OFFCURVE",
"562 457 OFFCURVE",
"562 336 CURVE SMOOTH",
"562 201 OFFCURVE",
"465 117 OFFCURVE",
"322 62 CURVE",
"322 53 LINE",
"403 -51 OFFCURVE",
"477 -152 OFFCURVE",
"544 -250 CURVE"
);
},
{
closed = 1;
nodes = (
"369 257 OFFCURVE",
"394 284 OFFCURVE",
"394 322 CURVE SMOOTH",
"394 360 OFFCURVE",
"370 385 OFFCURVE",
"334 385 CURVE SMOOTH",
"297 385 OFFCURVE",
"272 358 OFFCURVE",
"272 320 CURVE SMOOTH",
"272 282 OFFCURVE",
"296 257 OFFCURVE",
"332 257 CURVE SMOOTH"
);
}
);
width = 666;
},
{
layerId = "D419D424-3725-4B78-A608-932C6DF68265";
paths = (
{
closed = 1;
nodes = (
"550 -250 LINE",
"642 -118 LINE",
"574 -48 OFFCURVE",
"501 17 OFFCURVE",
"421 79 CURVE",
"413 -10 LINE",
"567 76 OFFCURVE",
"644 186 OFFCURVE",
"644 341 CURVE SMOOTH",
"644 535 OFFCURVE",
"519 636 OFFCURVE",
"350 636 CURVE SMOOTH",
"151 636 OFFCURVE",
"40 495 OFFCURVE",
"40 299 CURVE SMOOTH",
"40 160 OFFCURVE",
"96 71 OFFCURVE",
"179 71 CURVE SMOOTH",
"230 71 OFFCURVE",
"270 104 OFFCURVE",
"270 172 CURVE SMOOTH",
"270 203 OFFCURVE",
"262 224 OFFCURVE",
"246 243 CURVE",
"84 243 LINE",
"92 165 LINE",
"163 196 LINE",
"141 207 OFFCURVE",
"124 243 OFFCURVE",
"124 292 CURVE SMOOTH",
"124 413 OFFCURVE",
"223 490 OFFCURVE",
"372 490 CURVE SMOOTH",
"482 490 OFFCURVE",
"560 447 OFFCURVE",
"560 349 CURVE SMOOTH",
"560 242 OFFCURVE",
"467 171 OFFCURVE",
"317 118 CURVE",
"317 109 LINE",
"399 -11 OFFCURVE",
"475 -130 OFFCURVE",
"542 -250 CURVE"
);
},
{
closed = 1;
nodes = (
"393 236 OFFCURVE",
"429 271 OFFCURVE",
"429 327 CURVE SMOOTH",
"429 383 OFFCURVE",
"394 416 OFFCURVE",
"343 416 CURVE SMOOTH",
"291 416 OFFCURVE",
"255 381 OFFCURVE",
"255 325 CURVE SMOOTH",
"255 269 OFFCURVE",
"290 236 OFFCURVE",
"341 236 CURVE SMOOTH"
);
}
);
width = 684;
}
);
leftKerningGroup = Toto_IU;
leftMetricsKey = u1E2A3;
rightKerningGroup = Toto_IU;
rightMetricsKey = u1E2A3;
unicode = 1E290;
script = default;
category = Letter;
subCategory = Other;
},
{
glyphname = u1E291;
lastChange = "2021-12-16 15:11:45 +0000";
layers = (
{
layerId = "E40B9561-B6E0-4D94-A2F7-63596B9AF675";
paths = (
{
closed = 1;
nodes = (
"175 -250 LINE",
"162 63 LINE SMOOTH",
"159 131 OFFCURVE",
"158 192 OFFCURVE",
"158 245 CURVE SMOOTH",
"158 442 OFFCURVE",
"226 540 OFFCURVE",
"366 540 CURVE SMOOTH",
"474 540 OFFCURVE",
"540 483 OFFCURVE",
"540 356 CURVE SMOOTH",
"540 179 OFFCURVE",
"398 90 OFFCURVE",
"138 85 CURVE",
"10 85 LINE",
"10 76 LINE",
"101 0 LINE",
"148 0 LINE",
"433 6 OFFCURVE",
"596 124 OFFCURVE",
"596 346 CURVE SMOOTH",
"596 527 OFFCURVE",
"499 632 OFFCURVE",
"350 632 CURVE SMOOTH",
"188 632 OFFCURVE",
"93 506 OFFCURVE",
"93 284 CURVE SMOOTH",
"93 -203 LINE",
"165 -250 LINE"
);
}
);
width = 644;
},
{
layerId = "D419D424-3725-4B78-A608-932C6DF68265";
paths = (
{
closed = 1;
nodes = (
"236 -250 LINE",
"213 40 LINE SMOOTH",
"209 92 OFFCURVE",
"204 161 OFFCURVE",
"204 216 CURVE SMOOTH",
"204 427 OFFCURVE",
"288 486 OFFCURVE",
"394 486 CURVE SMOOTH",
"493 486 OFFCURVE",
"543 432 OFFCURVE",
"543 349 CURVE SMOOTH",
"543 211 OFFCURVE",
"399 136 OFFCURVE",
"147 133 CURVE",
"8 133 LINE",
"8 124 LINE",
"117 0 LINE",
"158 0 LINE",
"444 6 OFFCURVE",
"627 114 OFFCURVE",
"627 344 CURVE SMOOTH",
"627 524 OFFCURVE",
"519 634 OFFCURVE",
"364 634 CURVE SMOOTH",
"200 634 OFFCURVE",
"104 512 OFFCURVE",
"104 269 CURVE SMOOTH",
"104 -191 LINE",
"226 -250 LINE"
);
}
);
width = 667;
}
);
leftKerningGroup = Toto_BA;
leftMetricsKey = "=u1E2A3*0.2";
rightKerningGroup = Toto_IU;
rightMetricsKey = u1E2A3;
unicode = 1E291;
script = default;
category = Letter;
subCategory = Other;
},
{
glyphname = u1E292;
lastChange = "2021-12-16 15:11:45 +0000";
layers = (
{
layerId = "E40B9561-B6E0-4D94-A2F7-63596B9AF675";
paths = (
{
closed = 1;
nodes = (
"409 175 OFFCURVE",
"503 270 OFFCURVE",
"503 405 CURVE SMOOTH",
"503 540 OFFCURVE",
"411 632 OFFCURVE",
"274 632 CURVE SMOOTH",
"137 632 OFFCURVE",
"43 538 OFFCURVE",
"43 402 CURVE SMOOTH",
"43 267 OFFCURVE",
"135 175 OFFCURVE",
"272 175 CURVE SMOOTH"
);
},
{
closed = 1;
nodes = (
"311 -36 LINE",
"311 201 LINE",
"235 201 LINE",
"235 7 LINE",
"303 -36 LINE"
);
},
{
closed = 1;
nodes = (
"156 263 OFFCURVE",
"99 311 OFFCURVE",
"99 391 CURVE SMOOTH",
"99 483 OFFCURVE",
"172 544 OFFCURVE",
"288 544 CURVE SMOOTH",
"389 544 OFFCURVE",
"447 496 OFFCURVE",
"447 416 CURVE SMOOTH",
"447 324 OFFCURVE",
"373 263 OFFCURVE",
"258 263 CURVE SMOOTH"
);
}
);
width = 546;
},
{
layerId = "D419D424-3725-4B78-A608-932C6DF68265";
paths = (
{
closed = 1;
nodes = (
"424 168 OFFCURVE",
"520 271 OFFCURVE",
"520 410 CURVE SMOOTH",
"520 547 OFFCURVE",
"428 636 OFFCURVE",
"285 636 CURVE SMOOTH",
"132 636 OFFCURVE",
"36 533 OFFCURVE",
"36 395 CURVE SMOOTH",
"36 259 OFFCURVE",
"128 168 OFFCURVE",
"271 168 CURVE SMOOTH"
);
},
{
closed = 1;
nodes = (
"336 -36 LINE",
"336 209 LINE",
"220 209 LINE",
"220 17 LINE",
"328 -36 LINE"
);
},
{
closed = 1;
nodes = (
"166 304 OFFCURVE",
"116 330 OFFCURVE",
"116 386 CURVE SMOOTH",
"116 456 OFFCURVE",
"193 500 OFFCURVE",
"304 500 CURVE SMOOTH",
"390 500 OFFCURVE",
"440 474 OFFCURVE",
"440 418 CURVE SMOOTH",
"440 348 OFFCURVE",
"364 304 OFFCURVE",
"252 304 CURVE SMOOTH"
);
}
);
width = 556;
}
);
leftKerningGroup = Toto_TA;
leftMetricsKey = "=u1E2A3*0.9";
rightKerningGroup = Toto_TA;
rightMetricsKey = "=|";
unicode = 1E292;
script = default;
category = Letter;
subCategory = Other;
},
{
glyphname = u1E293;
lastChange = "2021-12-16 15:11:45 +0000";
layers = (
{
layerId = "E40B9561-B6E0-4D94-A2F7-63596B9AF675";
paths = (
{
closed = 1;
nodes = (
"409 -104 OFFCURVE",
"503 -10 OFFCURVE",
"503 126 CURVE SMOOTH",
"503 260 OFFCURVE",
"411 351 OFFCURVE",
"274 351 CURVE SMOOTH",
"137 351 OFFCURVE",
"43 258 OFFCURVE",
"43 123 CURVE SMOOTH",
"43 -12 OFFCURVE",
"135 -104 OFFCURVE",
"272 -104 CURVE SMOOTH"
);
},
{
closed = 1;
nodes = (
"156 -16 OFFCURVE",
"99 32 OFFCURVE",
"99 112 CURVE SMOOTH",
"99 204 OFFCURVE",
"172 265 OFFCURVE",
"288 265 CURVE SMOOTH",
"390 265 OFFCURVE",
"447 217 OFFCURVE",
"447 137 CURVE SMOOTH",
"447 45 OFFCURVE",
"374 -16 OFFCURVE",
"258 -16 CURVE SMOOTH"
);
},
{
closed = 1;
nodes = (
"311 338 LINE",
"311 568 LINE",
"235 568 LINE",
"235 338 LINE"
);
},
{
closed = 1;
nodes = (
"516 540 LINE",
"516 550 LINE",
"470 622 LINE",
"30 622 LINE",
"30 612 LINE",
"76 540 LINE"
);
}
);
width = 546;
},
{
layerId = "D419D424-3725-4B78-A608-932C6DF68265";
paths = (
{
closed = 1;
nodes = (
"424 -108 OFFCURVE",
"520 -5 OFFCURVE",
"520 134 CURVE SMOOTH",
"520 271 OFFCURVE",
"428 360 OFFCURVE",
"285 360 CURVE SMOOTH",
"132 360 OFFCURVE",
"36 257 OFFCURVE",
"36 119 CURVE SMOOTH",
"36 -17 OFFCURVE",
"128 -108 OFFCURVE",
"271 -108 CURVE SMOOTH"
);
},
{
closed = 1;
nodes = (
"166 28 OFFCURVE",
"116 54 OFFCURVE",
"116 110 CURVE SMOOTH",
"116 180 OFFCURVE",
"193 224 OFFCURVE",
"304 224 CURVE SMOOTH",
"390 224 OFFCURVE",
"440 198 OFFCURVE",
"440 142 CURVE SMOOTH",
"440 72 OFFCURVE",
"364 28 OFFCURVE",
"252 28 CURVE SMOOTH"
);
},
{
closed = 1;
nodes = (
"336 327 LINE",
"336 519 LINE",
"220 519 LINE",
"220 327 LINE"
);
},
{
closed = 1;
nodes = (
"538 500 LINE",
"538 510 LINE",
"472 622 LINE",
"18 622 LINE",
"18 612 LINE",
"84 500 LINE"
);
}
);
width = 556;
}
);
widthMetricsKey = u1E292;
rightMetricsKey = "=|";
unicode = 1E293;
script = default;
category = Letter;
subCategory = Other;
},
{
glyphname = u1E294;
lastChange = "2021-12-16 15:11:45 +0000";
layers = (
{
layerId = "E40B9561-B6E0-4D94-A2F7-63596B9AF675";
paths = (
{
closed = 1;
nodes = (
"140 -250 LINE",
"127 63 LINE SMOOTH",
"124 131 OFFCURVE",
"123 192 OFFCURVE",
"123 245 CURVE SMOOTH",
"123 442 OFFCURVE",
"190 540 OFFCURVE",
"327 540 CURVE SMOOTH",
"435 540 OFFCURVE",
"500 479 OFFCURVE",
"500 372 CURVE SMOOTH",
"500 268 OFFCURVE",
"440 166 OFFCURVE",
"280 105 CURVE",
"280 96 LINE",
"337 24 LINE",
"480 98 OFFCURVE",
"556 230 OFFCURVE",
"556 365 CURVE SMOOTH",
"556 516 OFFCURVE",
"460 632 OFFCURVE",
"311 632 CURVE SMOOTH",
"155 632 OFFCURVE",
"58 506 OFFCURVE",
"58 284 CURVE SMOOTH",
"58 -203 LINE",
"132 -250 LINE"
);
}
);
width = 604;
},
{
layerId = "D419D424-3725-4B78-A608-932C6DF68265";
paths = (
{
closed = 1;
nodes = (
"180 -250 LINE",
"157 30 LINE SMOOTH",
"153 82 OFFCURVE",
"148 159 OFFCURVE",
"148 213 CURVE SMOOTH",
"148 430 OFFCURVE",
"231 484 OFFCURVE",
"334 484 CURVE SMOOTH",
"437 484 OFFCURVE",
"487 429 OFFCURVE",
"487 349 CURVE SMOOTH",
"487 239 OFFCURVE",
"390 174 OFFCURVE",
"249 134 CURVE",
"249 125 LINE",
"325 0 LINE",
"484 71 OFFCURVE",
"564 189 OFFCURVE",
"564 344 CURVE SMOOTH",
"564 523 OFFCURVE",
"464 632 OFFCURVE",
"311 632 CURVE SMOOTH",
"149 632 OFFCURVE",
"48 511 OFFCURVE",
"48 269 CURVE SMOOTH",
"48 -191 LINE",
"170 -250 LINE"
);
}
);
width = 604;
}
);
leftKerningGroup = Toto_Ka;
leftMetricsKey = "=u1E2A3*1.2";
rightKerningGroup = Toto_IU;
rightMetricsKey = "=u1E2A3";
unicode = 1E294;
script = default;
category = Letter;
subCategory = Other;
},
{
glyphname = u1E295;
lastChange = "2021-12-16 15:11:45 +0000";
layers = (
{
guideLines = (
{
angle = 90;
position = "{478, 188}";
}
);
layerId = "E40B9561-B6E0-4D94-A2F7-63596B9AF675";
paths = (
{
closed = 1;
nodes = (
"386 255 OFFCURVE",
"474 335 OFFCURVE",
"474 445 CURVE SMOOTH",
"474 555 OFFCURVE",
"388 632 OFFCURVE",
"260 632 CURVE SMOOTH",
"131 632 OFFCURVE",
"43 551 OFFCURVE",
"43 439 CURVE SMOOTH",
"43 331 OFFCURVE",
"129 255 OFFCURVE",
"257 255 CURVE SMOOTH"
);
},
{
closed = 1;
nodes = (
"386 -250 OFFCURVE",
"474 -169 OFFCURVE",
"474 -57 CURVE SMOOTH",
"474 51 OFFCURVE",
"388 127 OFFCURVE",
"260 127 CURVE SMOOTH",
"131 127 OFFCURVE",
"43 47 OFFCURVE",
"43 -63 CURVE SMOOTH",
"43 -173 OFFCURVE",
"129 -250 OFFCURVE",
"257 -250 CURVE SMOOTH"
);
},
{
closed = 1;
nodes = (
"155 -164 OFFCURVE",
"99 -133 OFFCURVE",
"99 -69 CURVE SMOOTH",
"99 -1 OFFCURVE",
"160 45 OFFCURVE",
"271 45 CURVE SMOOTH",
"362 45 OFFCURVE",
"418 14 OFFCURVE",
"418 -51 CURVE SMOOTH",
"418 -118 OFFCURVE",
"357 -164 OFFCURVE",
"246 -164 CURVE SMOOTH"
);
},
{
closed = 1;
nodes = (
"297 94 LINE",
"297 284 LINE",
"221 284 LINE",
"221 94 LINE"
);
},
{
closed = 1;
nodes = (
"155 337 OFFCURVE",
"99 368 OFFCURVE",
"99 433 CURVE SMOOTH",
"99 500 OFFCURVE",
"160 546 OFFCURVE",
"271 546 CURVE SMOOTH",
"362 546 OFFCURVE",
"418 515 OFFCURVE",
"418 451 CURVE SMOOTH",
"418 383 OFFCURVE",
"357 337 OFFCURVE",
"246 337 CURVE SMOOTH"
);
}
);
width = 517;
},
{
guideLines = (
{
angle = 90;
position = "{465, 188}";
}
);
layerId = "D419D424-3725-4B78-A608-932C6DF68265";
paths = (
{
closed = 1;
nodes = (
"397 230 OFFCURVE",
"494 318 OFFCURVE",
"494 441 CURVE SMOOTH",
"494 557 OFFCURVE",
"406 636 OFFCURVE",
"275 636 CURVE SMOOTH",
"134 636 OFFCURVE",
"36 544 OFFCURVE",
"36 421 CURVE SMOOTH",
"36 306 OFFCURVE",
"122 230 OFFCURVE",
"254 230 CURVE SMOOTH"
);
},
{
closed = 1;
nodes = (
"396 -250 OFFCURVE",
"494 -158 OFFCURVE",
"494 -35 CURVE SMOOTH",
"494 80 OFFCURVE",
"408 156 OFFCURVE",
"276 156 CURVE SMOOTH",
"133 156 OFFCURVE",
"36 68 OFFCURVE",
"36 -55 CURVE SMOOTH",
"36 -171 OFFCURVE",
"124 -250 OFFCURVE",
"255 -250 CURVE SMOOTH"
);
},
{
closed = 1;
nodes = (
"156 -116 OFFCURVE",
"116 -96 OFFCURVE",
"116 -56 CURVE SMOOTH",
"116 -3 OFFCURVE",
"187 32 OFFCURVE",
"295 32 CURVE SMOOTH",
"374 32 OFFCURVE",
"414 12 OFFCURVE",
"414 -28 CURVE SMOOTH",
"414 -81 OFFCURVE",
"342 -116 OFFCURVE",
"235 -116 CURVE SMOOTH"
);
},
{
closed = 1;
nodes = (
"323 96 LINE",
"323 288 LINE",
"207 288 LINE",
"207 96 LINE"
);
},
{
closed = 1;
nodes = (
"156 354 OFFCURVE",
"116 374 OFFCURVE",
"116 414 CURVE SMOOTH",
"116 467 OFFCURVE",
"188 502 OFFCURVE",
"295 502 CURVE SMOOTH",
"374 502 OFFCURVE",
"414 482 OFFCURVE",
"414 442 CURVE SMOOTH",
"414 389 OFFCURVE",
"343 354 OFFCURVE",
"235 354 CURVE SMOOTH"
);
}
);
width = 530;
}
);
leftMetricsKey = "=u1E2A3*0.9";
rightMetricsKey = "=|";
unicode = 1E295;
script = default;
category = Letter;
subCategory = Other;
},
{
glyphname = u1E296;
lastChange = "2021-12-16 15:11:45 +0000";
layers = (
{
layerId = "E40B9561-B6E0-4D94-A2F7-63596B9AF675";
paths = (
{
closed = 1;
nodes = (
"149 555 LINE",
"73 587 LINE",
"73 33 LINE",
"141 -10 LINE",
"149 -10 LINE"
);
},
{
closed = 1;
nodes = (
"511 -10 LINE",
"519 -10 LINE",
"519 545 LINE",
"470 622 LINE",
"29 622 LINE",
"29 612 LINE",
"75 540 LINE",
"483 540 LINE",
"443 555 LINE",
"443 33 LINE"
);
}
);
width = 601;
},
{
layerId = "D419D424-3725-4B78-A608-932C6DF68265";
paths = (
{
closed = 1;
nodes = (
"200 555 LINE",
"84 597 LINE",
"84 43 LINE",
"192 -10 LINE",
"200 -10 LINE"
);
},
{
closed = 1;
nodes = (
"573 -10 LINE",
"581 -10 LINE",
"581 505 LINE",
"515 622 LINE",
"24 622 LINE",
"24 612 LINE",
"90 500 LINE",
"561 500 LINE",
"465 565 LINE",
"465 43 LINE"
);
}
);
width = 649;
}
);
leftMetricsKey = "=u1E2A3*0.6";
rightMetricsKey = "=u1E2AB";
unicode = 1E296;
script = default;
category = Letter;
subCategory = Other;
},
{
glyphname = u1E297;
lastChange = "2021-12-16 15:11:45 +0000";
layers = (
{
layerId = "E40B9561-B6E0-4D94-A2F7-63596B9AF675";
paths = (
{
closed = 1;
nodes = (
"793 -10 OFFCURVE",
"872 82 OFFCURVE",
"872 220 CURVE SMOOTH",
"872 357 OFFCURVE",
"794 447 OFFCURVE",
"680 447 CURVE SMOOTH",
"566 447 OFFCURVE",
"486 356 OFFCURVE",
"486 217 CURVE SMOOTH",
"486 80 OFFCURVE",
"564 -10 OFFCURVE",
"678 -10 CURVE SMOOTH"
);
},
{
closed = 1;
nodes = (
"345 -10 OFFCURVE",
"424 82 OFFCURVE",
"424 220 CURVE SMOOTH",
"424 357 OFFCURVE",
"346 447 OFFCURVE",
"232 447 CURVE SMOOTH",
"118 447 OFFCURVE",
"38 356 OFFCURVE",
"38 217 CURVE SMOOTH",
"38 80 OFFCURVE",
"116 -10 OFFCURVE",
"230 -10 CURVE SMOOTH"
);
},
{
closed = 1;
nodes = (
"139 76 OFFCURVE",
"94 123 OFFCURVE",
"94 206 CURVE SMOOTH",
"94 302 OFFCURVE",
"153 361 OFFCURVE",
"244 361 CURVE SMOOTH",
"324 361 OFFCURVE",
"368 314 OFFCURVE",
"368 231 CURVE SMOOTH",
"368 135 OFFCURVE",
"310 76 OFFCURVE",
"218 76 CURVE SMOOTH"
);
},
{
closed = 1;
nodes = (
"587 76 OFFCURVE",
"542 123 OFFCURVE",
"542 206 CURVE SMOOTH",
"542 302 OFFCURVE",
"601 361 OFFCURVE",
"692 361 CURVE SMOOTH",
"772 361 OFFCURVE",
"816 314 OFFCURVE",
"816 231 CURVE SMOOTH",
"816 135 OFFCURVE",
"758 76 OFFCURVE",
"666 76 CURVE SMOOTH"
);
},
{
closed = 1;
nodes = (
"374 504 LINE",
"382 504 LINE",
"464 548 OFFCURVE",
"560 602 OFFCURVE",
"637 656 CURVE",
"621 748 LINE",
"612 748 LINE",
"538 686 OFFCURVE",
"443 621 OFFCURVE",
"364 568 CURVE"
);
}
);
width = 910;
},
{
layerId = "D419D424-3725-4B78-A608-932C6DF68265";
paths = (
{
closed = 1;
nodes = (
"817 -10 OFFCURVE",
"898 90 OFFCURVE",
"898 232 CURVE SMOOTH",
"898 371 OFFCURVE",
"820 458 OFFCURVE",
"701 458 CURVE SMOOTH",
"574 458 OFFCURVE",
"492 359 OFFCURVE",
"492 216 CURVE SMOOTH",
"492 78 OFFCURVE",
"569 -10 OFFCURVE",
"689 -10 CURVE SMOOTH"
);
},
{
closed = 1;
nodes = (
"357 -10 OFFCURVE",
"438 90 OFFCURVE",
"438 232 CURVE SMOOTH",
"438 371 OFFCURVE",
"360 458 OFFCURVE",
"241 458 CURVE SMOOTH",
"114 458 OFFCURVE",
"32 359 OFFCURVE",
"32 216 CURVE SMOOTH",
"32 78 OFFCURVE",
"109 -10 OFFCURVE",
"229 -10 CURVE SMOOTH"
);
},
{
closed = 1;
nodes = (
"144 126 OFFCURVE",
"112 157 OFFCURVE",
"112 211 CURVE SMOOTH",
"112 279 OFFCURVE",
"165 322 OFFCURVE",
"252 322 CURVE SMOOTH",
"326 322 OFFCURVE",
"358 291 OFFCURVE",
"358 237 CURVE SMOOTH",
"358 169 OFFCURVE",
"305 126 OFFCURVE",
"218 126 CURVE SMOOTH"
);
},
{
closed = 1;
nodes = (
"604 126 OFFCURVE",
"572 157 OFFCURVE",
"572 211 CURVE SMOOTH",
"572 279 OFFCURVE",
"625 322 OFFCURVE",
"712 322 CURVE SMOOTH",
"786 322 OFFCURVE",
"818 291 OFFCURVE",
"818 237 CURVE SMOOTH",
"818 169 OFFCURVE",
"765 126 OFFCURVE",
"678 126 CURVE SMOOTH"
);
},
{
closed = 1;
nodes = (
"374 504 LINE",
"382 504 LINE",
"479 531 OFFCURVE",
"576 563 OFFCURVE",
"669 604 CURVE",
"643 748 LINE",
"634 748 LINE",
"550 684 OFFCURVE",
"452 626 OFFCURVE",
"364 575 CURVE"
);
}
);
width = 930;
}
);
leftKerningGroup = Toto_Na;
leftMetricsKey = "=u1E2A3*0.8";
rightKerningGroup = Toto_Na;
rightMetricsKey = "=|";
unicode = 1E297;
script = default;
category = Letter;
subCategory = Other;
},
{
glyphname = u1E298;
lastChange = "2021-12-16 15:11:45 +0000";
layers = (
{
layerId = "E40B9561-B6E0-4D94-A2F7-63596B9AF675";
paths = (
{
closed = 1;
nodes = (
"409 -10 OFFCURVE",
"503 84 OFFCURVE",
"503 220 CURVE SMOOTH",
"503 355 OFFCURVE",
"411 447 OFFCURVE",
"274 447 CURVE SMOOTH",
"137 447 OFFCURVE",
"43 353 OFFCURVE",
"43 217 CURVE SMOOTH",
"43 82 OFFCURVE",
"135 -10 OFFCURVE",
"272 -10 CURVE SMOOTH"
);
},
{
closed = 1;
nodes = (
"156 78 OFFCURVE",
"99 126 OFFCURVE",
"99 206 CURVE SMOOTH",
"99 298 OFFCURVE",
"172 359 OFFCURVE",
"288 359 CURVE SMOOTH",
"389 359 OFFCURVE",
"447 311 OFFCURVE",
"447 231 CURVE SMOOTH",
"447 139 OFFCURVE",
"373 78 OFFCURVE",
"258 78 CURVE SMOOTH"
);
},
{
closed = 1;
nodes = (
"169 504 LINE",
"177 504 LINE",
"259 548 OFFCURVE",
"355 602 OFFCURVE",
"432 656 CURVE",
"416 748 LINE",
"407 748 LINE",
"333 686 OFFCURVE",
"238 621 OFFCURVE",
"159 568 CURVE"
);
}
);
width = 546;
},
{
layerId = "D419D424-3725-4B78-A608-932C6DF68265";
paths = (
{
closed = 1;
nodes = (
"424 -10 OFFCURVE",
"520 93 OFFCURVE",
"520 232 CURVE SMOOTH",
"520 369 OFFCURVE",
"428 458 OFFCURVE",
"285 458 CURVE SMOOTH",
"132 458 OFFCURVE",
"36 355 OFFCURVE",
"36 217 CURVE SMOOTH",
"36 81 OFFCURVE",
"128 -10 OFFCURVE",
"271 -10 CURVE SMOOTH"
);
},
{
closed = 1;
nodes = (
"166 126 OFFCURVE",
"116 152 OFFCURVE",
"116 208 CURVE SMOOTH",
"116 278 OFFCURVE",
"193 322 OFFCURVE",
"304 322 CURVE SMOOTH",
"390 322 OFFCURVE",
"440 296 OFFCURVE",
"440 240 CURVE SMOOTH",
"440 170 OFFCURVE",
"364 126 OFFCURVE",
"252 126 CURVE SMOOTH"
);
},
{
closed = 1;
nodes = (
"163 504 LINE",
"171 504 LINE",
"268 531 OFFCURVE",
"365 564 OFFCURVE",
"458 604 CURVE",
"432 748 LINE",
"423 748 LINE",
"339 684 OFFCURVE",
"241 626 OFFCURVE",
"153 575 CURVE"
);
}
);
width = 556;
}
);
leftKerningGroup = Toto_NGA;
leftMetricsKey = "=u1E2A3*0.9";
rightKerningGroup = Toto_NGA;
rightMetricsKey = "=|";
unicode = 1E298;
script = default;
category = Letter;
subCategory = Other;
},
{
glyphname = u1E299;
lastChange = "2021-12-16 15:11:45 +0000";
layers = (
{
layerId = "E40B9561-B6E0-4D94-A2F7-63596B9AF675";
paths = (
{
closed = 1;
nodes = (
"305 -10 OFFCURVE",
"395 117 OFFCURVE",
"402 285 CURVE",
"374 286 LINE",
"383 95 OFFCURVE",
"456 -10 OFFCURVE",
"566 -10 CURVE SMOOTH",
"642 -10 OFFCURVE",
"706 39 OFFCURVE",
"733 101 CURVE",
"690 180 LINE",
"680 180 LINE",
"653 117 OFFCURVE",
"610 82 OFFCURVE",
"557 82 CURVE SMOOTH",
"443 82 OFFCURVE",
"418 233 OFFCURVE",
"418 399 CURVE SMOOTH",
"418 446 OFFCURVE",
"420 518 OFFCURVE",
"423 580 CURVE",
"345 632 LINE",
"335 632 LINE",
"338 586 OFFCURVE",
"339 546 OFFCURVE",
"339 487 CURVE SMOOTH",
"339 271 OFFCURVE",
"326 82 OFFCURVE",
"182 82 CURVE SMOOTH",
"133 82 OFFCURVE",
"102 103 OFFCURVE",
"67 160 CURVE",
"24 128 LINE",
"69 32 OFFCURVE",
"126 -10 OFFCURVE",
"192 -10 CURVE SMOOTH"
);
}
);
width = 757;
},
{
layerId = "D419D424-3725-4B78-A608-932C6DF68265";
paths = (
{
closed = 1;
nodes = (
"314 -10 OFFCURVE",
"394 85 OFFCURVE",
"411 234 CURVE",
"397 245 LINE",
"404 86 OFFCURVE",
"482 -10 OFFCURVE",
"594 -10 CURVE SMOOTH",
"661 -10 OFFCURVE",
"727 26 OFFCURVE",
"755 77 CURVE",
"698 210 LINE",
"688 210 LINE",
"657 164 OFFCURVE",
"618 128 OFFCURVE",
"561 128 CURVE SMOOTH",
"463 128 OFFCURVE",
"449 235 OFFCURVE",
"449 409 CURVE SMOOTH",
"449 453 OFFCURVE",
"450 518 OFFCURVE",
"452 560 CURVE",
"335 636 LINE",
"325 636 LINE",
"329 592 OFFCURVE",
"331 541 OFFCURVE",
"331 464 CURVE SMOOTH",
"331 273 OFFCURVE",
"319 128 OFFCURVE",
"179 128 CURVE SMOOTH",
"134 128 OFFCURVE",
"102 144 OFFCURVE",
"67 181 CURVE",
"20 140 LINE",
"63 40 OFFCURVE",
"124 -10 OFFCURVE",
"205 -10 CURVE SMOOTH"
);
}
);
width = 775;
}
);
leftKerningGroup = Toto_SA;
leftMetricsKey = "=u1E2A3*0.5";
rightKerningGroup = Toto_SA;
rightMetricsKey = "=|";
unicode = 1E299;
script = default;
category = Letter;
subCategory = Other;
},
{
glyphname = u1E29A;
lastChange = "2021-12-16 15:11:45 +0000";
layers = (
{
layerId = "E40B9561-B6E0-4D94-A2F7-63596B9AF675";
paths = (
{
closed = 1;
nodes = (
"548 -5 LINE",
"548 587 LINE",
"480 632 LINE",
"470 632 LINE",
"359 542 OFFCURVE",
"220 450 OFFCURVE",
"24 340 CURVE",
"24 331 LINE",
"69 257 LINE",
"233 191 OFFCURVE",
"410 99 OFFCURVE",
"538 -10 CURVE"
);
},
{
closed = 1;
nodes = (
"509 84 LINE",
"396 181 OFFCURVE",
"248 260 OFFCURVE",
"118 318 CURVE",
"113 300 LINE",
"268 388 OFFCURVE",
"410 477 OFFCURVE",
"523 565 CURVE",
"472 574 LINE",
"472 62 LINE"
);
}
);
width = 630;
},
{
layerId = "D419D424-3725-4B78-A608-932C6DF68265";
paths = (
{
closed = 1;
nodes = (
"590 -5 LINE",
"590 571 LINE",
"486 636 LINE",
"476 636 LINE",
"365 554 OFFCURVE",
"198 460 OFFCURVE",
"20 370 CURVE",
"20 361 LINE",
"94 236 LINE",
"264 179 OFFCURVE",
"447 90 OFFCURVE",
"580 -10 CURVE"
);
},
{
closed = 1;
nodes = (
"526 96 LINE",
"418 190 OFFCURVE",
"272 278 OFFCURVE",
"138 326 CURVE",
"117 281 LINE",
"280 358 OFFCURVE",
"432 443 OFFCURVE",
"555 536 CURVE",
"474 578 LINE",
"474 89 LINE"
);
}
);
width = 658;
}
);
leftKerningGroup = Toto_Ra;
leftMetricsKey = "=u1E2A3*0.5";
rightMetricsKey = "=u1E2AB";
unicode = 1E29A;
script = default;
category = Letter;
subCategory = Other;
},
{
glyphname = u1E29B;
lastChange = "2021-12-16 15:11:45 +0000";
layers = (
{
layerId = "E40B9561-B6E0-4D94-A2F7-63596B9AF675";
paths = (
{
closed = 1;
nodes = (
"284 -10 LINE",
"352 239 OFFCURVE",
"432 424 OFFCURVE",
"504 546 CURVE",
"433 589 LINE",
"360 457 OFFCURVE",
"289 278 OFFCURVE",
"240 79 CURVE",
"262 84 LINE",
"217 175 OFFCURVE",
"149 274 OFFCURVE",
"61 344 CURVE",
"24 310 LINE",
"98 235 OFFCURVE",
"161 132 OFFCURVE",
"201 35 CURVE",
"275 -10 LINE"
);
},
{
closed = 1;
nodes = (
"581 540 LINE",
"581 550 LINE",
"535 622 LINE",
"95 622 LINE",
"95 612 LINE",
"141 540 LINE"
);
}
);
width = 595;
},
{
layerId = "D419D424-3725-4B78-A608-932C6DF68265";
paths = (
{
closed = 1;
nodes = (
"323 -10 LINE",
"397 228 OFFCURVE",
"472 413 OFFCURVE",
"542 538 CURVE",
"417 596 LINE",
"349 457 OFFCURVE",
"282 271 OFFCURVE",
"232 79 CURVE",
"289 112 LINE",
"240 199 OFFCURVE",
"161 296 OFFCURVE",
"63 363 CURVE",
"20 324 LINE",
"97 248 OFFCURVE",
"170 145 OFFCURVE",
"203 43 CURVE",
"314 -10 LINE"
);
},
{
closed = 1;
nodes = (
"627 500 LINE",
"627 510 LINE",
"561 622 LINE",
"107 622 LINE",
"107 612 LINE",
"173 500 LINE"
);
}
);
width = 639;
}
);
leftKerningGroup = Totot_Ya;
leftMetricsKey = "=u1E2A3*0.5";
rightKerningGroup = Totot_Ya;
rightMetricsKey = "=u1E2A3*0.3";
unicode = 1E29B;
script = default;
category = Letter;
subCategory = Other;
},
{
glyphname = u1E29C;
lastChange = "2021-12-16 15:11:45 +0000";
layers = (
{
layerId = "E40B9561-B6E0-4D94-A2F7-63596B9AF675";
paths = (
{
closed = 1;
nodes = (
"562 -200 LINE",
"601 -113 LINE",
"547 -50 OFFCURVE",
"482 12 OFFCURVE",
"418 71 CURVE",
"394 17 LINE",
"532 87 OFFCURVE",
"618 177 OFFCURVE",
"618 326 CURVE SMOOTH",
"618 492 OFFCURVE",
"509 632 OFFCURVE",
"335 632 CURVE SMOOTH",
"166 632 OFFCURVE",
"48 501 OFFCURVE",
"48 306 CURVE SMOOTH",
"48 177 OFFCURVE",
"100 91 OFFCURVE",
"172 91 CURVE SMOOTH",
"208 91 OFFCURVE",
"236 110 OFFCURVE",
"236 150 CURVE SMOOTH",
"236 166 OFFCURVE",
"231 182 OFFCURVE",
"221 193 CURVE",
"121 193 LINE",
"121 164 LINE",
"153 178 LINE",
"119 192 OFFCURVE",
"104 242 OFFCURVE",
"104 298 CURVE SMOOTH",
"104 441 OFFCURVE",
"203 540 OFFCURVE",
"349 540 CURVE SMOOTH",
"484 540 OFFCURVE",
"562 456 OFFCURVE",
"562 337 CURVE SMOOTH",
"562 206 OFFCURVE",
"463 141 OFFCURVE",
"332 92 CURVE",
"332 83 LINE",
"412 -11 OFFCURVE",
"487 -107 OFFCURVE",
"554 -200 CURVE"
);
},
{
closed = 1;
nodes = (
"401 -250 OFFCURVE",
"426 -223 OFFCURVE",
"426 -185 CURVE SMOOTH",
"426 -147 OFFCURVE",
"402 -122 OFFCURVE",
"366 -122 CURVE SMOOTH",
"329 -122 OFFCURVE",
"304 -149 OFFCURVE",
"304 -187 CURVE SMOOTH",
"304 -225 OFFCURVE",
"328 -250 OFFCURVE",
"364 -250 CURVE SMOOTH"
);
}
);
width = 666;
},
{
layerId = "D419D424-3725-4B78-A608-932C6DF68265";
paths = (
{
closed = 1;
nodes = (
"554 -200 LINE",
"642 -75 LINE",
"581 -13 OFFCURVE",
"495 53 OFFCURVE",
"421 102 CURVE",
"413 10 LINE",
"567 96 OFFCURVE",
"644 185 OFFCURVE",
"644 339 CURVE SMOOTH",
"644 532 OFFCURVE",
"519 632 OFFCURVE",
"350 632 CURVE SMOOTH",
"150 632 OFFCURVE",
"40 491 OFFCURVE",
"40 298 CURVE SMOOTH",
"40 160 OFFCURVE",
"96 71 OFFCURVE",
"179 71 CURVE SMOOTH",
"230 71 OFFCURVE",
"270 104 OFFCURVE",
"270 172 CURVE SMOOTH",
"270 203 OFFCURVE",
"262 224 OFFCURVE",
"246 243 CURVE",
"84 243 LINE",
"92 165 LINE",
"163 196 LINE",
"141 207 OFFCURVE",
"124 243 OFFCURVE",
"124 292 CURVE SMOOTH",
"124 411 OFFCURVE",
"226 486 OFFCURVE",
"375 486 CURVE SMOOTH",
"486 486 OFFCURVE",
"560 444 OFFCURVE",
"560 348 CURVE SMOOTH",
"560 241 OFFCURVE",
"467 191 OFFCURVE",
"317 138 CURVE",
"317 129 LINE",
"393 29 OFFCURVE",
"470 -80 OFFCURVE",
"546 -200 CURVE"
);
},
{
closed = 1;
nodes = (
"414 -250 OFFCURVE",
"446 -219 OFFCURVE",
"446 -167 CURVE SMOOTH",
"446 -117 OFFCURVE",
"415 -86 OFFCURVE",
"368 -86 CURVE SMOOTH",
"320 -86 OFFCURVE",
"288 -118 OFFCURVE",
"288 -169 CURVE SMOOTH",
"288 -220 OFFCURVE",
"319 -250 OFFCURVE",
"366 -250 CURVE SMOOTH"
);
}
);
width = 684;
}
);
leftKerningGroup = Toto_IU;
leftMetricsKey = u1E2A3;
rightKerningGroup = Toto_IU;
rightMetricsKey = u1E2A3;
unicode = 1E29C;
script = default;
category = Letter;
subCategory = Other;
},
{
glyphname = u1E29D;
lastChange = "2021-12-16 15:11:45 +0000";
layers = (
{
layerId = "E40B9561-B6E0-4D94-A2F7-63596B9AF675";
paths = (
{
closed = 1;
nodes = (
"366 -250 OFFCURVE",
"443 -185 OFFCURVE",
"480 -59 CURVE",
"446 -29 LINE",
"408 -120 OFFCURVE",
"342 -164 OFFCURVE",
"241 -164 CURVE SMOOTH",
"155 -164 OFFCURVE",
"99 -132 OFFCURVE",
"99 -70 CURVE SMOOTH",
"99 -1 OFFCURVE",
"166 45 OFFCURVE",
"264 45 CURVE SMOOTH",
"382 45 OFFCURVE",
"416 -25 OFFCURVE",
"448 -91 CURVE SMOOTH",
"478 -154 OFFCURVE",
"508 -214 OFFCURVE",
"588 -214 CURVE SMOOTH",
"624 -214 OFFCURVE",
"664 -202 OFFCURVE",
"687 -181 CURVE",
"648 -108 LINE",
"641 -108 LINE",
"623 -124 OFFCURVE",
"603 -132 OFFCURVE",
"582 -132 CURVE SMOOTH",
"536 -132 OFFCURVE",
"515 -92 OFFCURVE",
"484 -32 CURVE SMOOTH",
"446 43 OFFCURVE",
"398 131 OFFCURVE",
"262 131 CURVE SMOOTH",
"128 131 OFFCURVE",
"43 49 OFFCURVE",
"43 -62 CURVE SMOOTH",
"43 -173 OFFCURVE",
"130 -250 OFFCURVE",
"253 -250 CURVE SMOOTH"
);
},
{
closed = 1;
nodes = (
"386 251 OFFCURVE",
"474 333 OFFCURVE",
"474 445 CURVE SMOOTH",
"474 555 OFFCURVE",
"388 632 OFFCURVE",
"260 632 CURVE SMOOTH",
"131 632 OFFCURVE",
"43 551 OFFCURVE",
"43 439 CURVE SMOOTH",
"43 329 OFFCURVE",
"129 251 OFFCURVE",
"257 251 CURVE SMOOTH"
);
},
{
closed = 1;
nodes = (
"155 337 OFFCURVE",
"99 368 OFFCURVE",
"99 433 CURVE SMOOTH",
"99 500 OFFCURVE",
"160 546 OFFCURVE",
"271 546 CURVE SMOOTH",
"361 546 OFFCURVE",
"418 515 OFFCURVE",
"418 451 CURVE SMOOTH",
"418 383 OFFCURVE",
"356 337 OFFCURVE",
"246 337 CURVE SMOOTH"
);
}
);
width = 547;
},
{
layerId = "D419D424-3725-4B78-A608-932C6DF68265";
paths = (
{
closed = 1;
nodes = (
"374 -250 OFFCURVE",
"456 -180 OFFCURVE",
"494 -47 CURVE",
"450 -22 LINE",
"408 -89 OFFCURVE",
"335 -116 OFFCURVE",
"235 -116 CURVE SMOOTH",
"156 -116 OFFCURVE",
"116 -96 OFFCURVE",
"116 -56 CURVE SMOOTH",
"116 -3 OFFCURVE",
"187 32 OFFCURVE",
"279 32 CURVE SMOOTH",
"374 32 OFFCURVE",
"409 -5 OFFCURVE",
"449 -91 CURVE SMOOTH",
"491 -182 OFFCURVE",
"541 -224 OFFCURVE",
"610 -224 CURVE SMOOTH",
"643 -224 OFFCURVE",
"683 -212 OFFCURVE",
"706 -191 CURVE",
"656 -68 LINE",
"649 -68 LINE",
"633 -83 OFFCURVE",
"614 -94 OFFCURVE",
"591 -94 CURVE SMOOTH",
"561 -94 OFFCURVE",
"532 -76 OFFCURVE",
"494 -3 CURVE SMOOTH",
"437 106 OFFCURVE",
"379 161 OFFCURVE",
"274 161 CURVE SMOOTH",
"134 161 OFFCURVE",
"36 71 OFFCURVE",
"36 -55 CURVE SMOOTH",
"36 -171 OFFCURVE",
"124 -250 OFFCURVE",
"253 -250 CURVE SMOOTH"
);
},
{
closed = 1;
nodes = (
"393 225 OFFCURVE",
"494 315 OFFCURVE",
"494 441 CURVE SMOOTH",
"494 557 OFFCURVE",
"406 636 OFFCURVE",
"277 636 CURVE SMOOTH",
"138 636 OFFCURVE",
"36 544 OFFCURVE",
"36 420 CURVE SMOOTH",
"36 303 OFFCURVE",
"123 225 OFFCURVE",
"253 225 CURVE SMOOTH"
);
},
{
closed = 1;
nodes = (
"156 354 OFFCURVE",
"116 374 OFFCURVE",
"116 414 CURVE SMOOTH",
"116 467 OFFCURVE",
"188 502 OFFCURVE",
"295 502 CURVE SMOOTH",
"374 502 OFFCURVE",
"414 482 OFFCURVE",
"414 442 CURVE SMOOTH",
"414 389 OFFCURVE",
"343 354 OFFCURVE",
"235 354 CURVE SMOOTH"
);
}
);
width = 560;
}
);
leftMetricsKey = "=u1E2A3*0.9";
widthMetricsKey = "=u1E295+30";
rightKerningGroup = Toto_JA;
unicode = 1E29D;
script = default;
category = Letter;
subCategory = Other;
},
{
glyphname = u1E29E;
lastChange = "2021-12-16 15:11:45 +0000";
layers = (
{
layerId = "E40B9561-B6E0-4D94-A2F7-63596B9AF675";
paths = (
{
closed = 1;
nodes = (
"227 -10 OFFCURVE",
"255 9 OFFCURVE",
"255 49 CURVE SMOOTH",
"255 65 OFFCURVE",
"250 81 OFFCURVE",
"240 92 CURVE",
"140 92 LINE",
"150 74 LINE",
"167 83 LINE",
"132 122 OFFCURVE",
"114 195 OFFCURVE",
"114 277 CURVE SMOOTH",
"114 448 OFFCURVE",
"198 540 OFFCURVE",
"322 540 CURVE SMOOTH",
"435 540 OFFCURVE",
"485 468 OFFCURVE",
"485 298 CURVE SMOOTH",
"485 239 OFFCURVE",
"480 156 OFFCURVE",
"468 37 CURVE",
"542 -10 LINE",
"550 -10 LINE",
"550 306 LINE SMOOTH",
"550 524 OFFCURVE",
"466 632 OFFCURVE",
"309 632 CURVE SMOOTH",
"152 632 OFFCURVE",
"58 512 OFFCURVE",
"58 286 CURVE SMOOTH",
"58 138 OFFCURVE",
"97 -10 OFFCURVE",
"191 -10 CURVE SMOOTH"
);
}
);
width = 608;
},
{
layerId = "D419D424-3725-4B78-A608-932C6DF68265";
paths = (
{
closed = 1;
nodes = (
"240 -10 OFFCURVE",
"285 21 OFFCURVE",
"285 91 CURVE SMOOTH",
"285 121 OFFCURVE",
"277 143 OFFCURVE",
"261 162 CURVE",
"99 162 LINE",
"113 101 LINE",
"178 132 LINE",
"151 151 OFFCURVE",
"132 207 OFFCURVE",
"132 274 CURVE SMOOTH",
"132 406 OFFCURVE",
"202 490 OFFCURVE",
"328 490 CURVE SMOOTH",
"432 490 OFFCURVE",
"480 435 OFFCURVE",
"480 286 CURVE SMOOTH",
"480 228 OFFCURVE",
"473 152 OFFCURVE",
"456 49 CURVE",
"572 -10 LINE",
"580 -10 LINE",
"580 307 LINE SMOOTH",
"580 519 OFFCURVE",
"481 636 OFFCURVE",
"311 636 CURVE SMOOTH",
"139 636 OFFCURVE",
"48 515 OFFCURVE",
"48 278 CURVE SMOOTH",
"48 102 OFFCURVE",
"98 -10 OFFCURVE",
"190 -10 CURVE SMOOTH"
);
}
);
width = 628;
}
);
leftMetricsKey = "=u1E2A3*1.2";
rightMetricsKey = "=u1E2A3*1.2";
unicode = 1E29E;
script = default;
category = Letter;
subCategory = Other;
},
{
glyphname = u1E29F;
lastChange = "2021-12-16 15:11:45 +0000";
layers = (
{
layerId = "E40B9561-B6E0-4D94-A2F7-63596B9AF675";
paths = (
{
closed = 1;
nodes = (
"513 36 LINE",
"407 155 OFFCURVE",
"255 250 OFFCURVE",
"118 318 CURVE",
"113 300 LINE",
"269 388 OFFCURVE",
"411 477 OFFCURVE",
"524 565 CURVE",
"481 632 LINE",
"471 632 LINE",
"360 542 OFFCURVE",
"221 450 OFFCURVE",
"24 340 CURVE",
"24 331 LINE",
"69 257 LINE",
"214 191 OFFCURVE",
"371 99 OFFCURVE",
"483 -10 CURVE"
);
}
);
width = 560;
},
{
layerId = "D419D424-3725-4B78-A608-932C6DF68265";
paths = (
{
closed = 1;
nodes = (
"545 42 LINE",
"446 151 OFFCURVE",
"273 271 OFFCURVE",
"138 326 CURVE",
"117 281 LINE",
"280 358 OFFCURVE",
"433 443 OFFCURVE",
"556 536 CURVE",
"486 636 LINE",
"476 636 LINE",
"365 554 OFFCURVE",
"198 460 OFFCURVE",
"20 370 CURVE",
"20 361 LINE",
"94 236 LINE",
"252 177 OFFCURVE",
"402 88 OFFCURVE",
"508 -10 CURVE"
);
}
);
width = 586;
}
);
leftKerningGroup = Toto_Ra;
leftMetricsKey = "=u1E2A3*0.5";
rightKerningGroup = Toto_Ra;
rightMetricsKey = "=u1E2A3*0.75";
unicode = 1E29F;
script = default;
category = Letter;
subCategory = Other;
},
{
glyphname = u1E2A0;
lastChange = "2021-12-16 15:11:45 +0000";
layers = (
{
layerId = "E40B9561-B6E0-4D94-A2F7-63596B9AF675";
paths = (
{
closed = 1;
nodes = (
"552 -250 LINE",
"591 -163 LINE",
"543 -100 OFFCURVE",
"472 -25 OFFCURVE",
"408 41 CURVE",
"384 -13 LINE",
"535 64 OFFCURVE",
"618 174 OFFCURVE",
"618 325 CURVE SMOOTH",
"618 493 OFFCURVE",
"509 632 OFFCURVE",
"335 632 CURVE SMOOTH",
"166 632 OFFCURVE",
"48 501 OFFCURVE",
"48 306 CURVE SMOOTH",
"48 177 OFFCURVE",
"100 91 OFFCURVE",
"172 91 CURVE SMOOTH",
"208 91 OFFCURVE",
"236 110 OFFCURVE",
"236 150 CURVE SMOOTH",
"236 166 OFFCURVE",
"231 182 OFFCURVE",
"221 193 CURVE",
"121 193 LINE",
"121 154 LINE",
"153 178 LINE",
"119 192 OFFCURVE",
"104 242 OFFCURVE",
"104 298 CURVE SMOOTH",
"104 441 OFFCURVE",
"203 540 OFFCURVE",
"349 540 CURVE SMOOTH",
"484 540 OFFCURVE",
"562 457 OFFCURVE",
"562 336 CURVE SMOOTH",
"562 201 OFFCURVE",
"465 117 OFFCURVE",
"322 62 CURVE",
"322 53 LINE",
"403 -51 OFFCURVE",
"477 -152 OFFCURVE",
"544 -250 CURVE"
);
}
);
width = 666;
},
{
layerId = "D419D424-3725-4B78-A608-932C6DF68265";
paths = (
{
closed = 1;
nodes = (
"550 -250 LINE",
"642 -118 LINE",
"574 -48 OFFCURVE",
"501 17 OFFCURVE",
"421 79 CURVE",
"413 -10 LINE",
"567 76 OFFCURVE",
"644 186 OFFCURVE",
"644 341 CURVE SMOOTH",
"644 535 OFFCURVE",
"519 636 OFFCURVE",
"350 636 CURVE SMOOTH",
"151 636 OFFCURVE",
"40 495 OFFCURVE",
"40 299 CURVE SMOOTH",
"40 160 OFFCURVE",
"96 71 OFFCURVE",
"179 71 CURVE SMOOTH",
"230 71 OFFCURVE",
"270 104 OFFCURVE",
"270 172 CURVE SMOOTH",
"270 203 OFFCURVE",
"262 224 OFFCURVE",
"246 243 CURVE",
"84 243 LINE",
"92 165 LINE",
"163 196 LINE",
"141 207 OFFCURVE",
"124 243 OFFCURVE",
"124 292 CURVE SMOOTH",
"124 413 OFFCURVE",
"223 490 OFFCURVE",
"372 490 CURVE SMOOTH",
"482 490 OFFCURVE",
"560 447 OFFCURVE",
"560 349 CURVE SMOOTH",
"560 242 OFFCURVE",
"467 171 OFFCURVE",
"317 118 CURVE",
"317 109 LINE",
"399 -11 OFFCURVE",
"475 -130 OFFCURVE",
"542 -250 CURVE"
);
}
);
width = 684;
}
);
leftKerningGroup = Toto_IU;
leftMetricsKey = u1E2A3;
rightKerningGroup = Toto_IU;
rightMetricsKey = u1E2A3;
unicode = 1E2A0;
script = default;
category = Letter;
subCategory = Other;
},
{
glyphname = u1E2A1;
lastChange = "2021-12-16 15:11:45 +0000";
layers = (
{
anchors = (
{
name = bottom;
position = "{184, 0}";
},
{
name = top;
position = "{184, 622}";
}
);
layerId = "E40B9561-B6E0-4D94-A2F7-63596B9AF675";
paths = (
{
closed = 1;
nodes = (
"301 -250 LINE",
"340 -163 LINE",
"292 -100 OFFCURVE",
"221 -25 OFFCURVE",
"157 41 CURVE",
"174 5 LINE",
"185 5 LINE SMOOTH",
"330 5 OFFCURVE",
"408 73 OFFCURVE",
"408 162 CURVE SMOOTH",
"408 247 OFFCURVE",
"337 320 OFFCURVE",
"214 340 CURVE",
"223 307 LINE",
"326 323 OFFCURVE",
"392 368 OFFCURVE",
"392 447 CURVE SMOOTH",
"392 550 OFFCURVE",
"280 632 OFFCURVE",
"38 632 CURVE",
"38 622 LINE",
"89 538 LINE",
"274 538 OFFCURVE",
"336 499 OFFCURVE",
"336 447 CURVE SMOOTH",
"336 404 OFFCURVE",
"294 360 OFFCURVE",
"155 360 CURVE SMOOTH",
"134 360 OFFCURVE",
"102 361 OFFCURVE",
"70 364 CURVE",
"70 354 LINE",
"117 276 LINE",
"257 273 OFFCURVE",
"352 230 OFFCURVE",
"352 165 CURVE SMOOTH",
"352 106 OFFCURVE",
"276 90 OFFCURVE",
"198 90 CURVE SMOOTH",
"154 90 OFFCURVE",
"89 95 OFFCURVE",
"44 103 CURVE",
"44 94 LINE",
"135 -27 OFFCURVE",
"219 -139 OFFCURVE",
"293 -250 CURVE"
);
}
);
width = 456;
},
{
anchors = (
{
name = bottom;
position = "{180, 0}";
},
{
name = top;
position = "{203, 622}";
}
);
layerId = "D419D424-3725-4B78-A608-932C6DF68265";
paths = (
{
closed = 1;
nodes = (
"314 -250 LINE",
"406 -118 LINE",
"348 -64 OFFCURVE",
"253 3 OFFCURVE",
"161 64 CURVE",
"193 5 LINE",
"215 5 LINE SMOOTH",
"352 5 OFFCURVE",
"449 74 OFFCURVE",
"449 172 CURVE SMOOTH",
"449 253 OFFCURVE",
"380 324 OFFCURVE",
"253 343 CURVE",
"262 300 LINE",
"346 315 OFFCURVE",
"433 339 OFFCURVE",
"433 432 CURVE SMOOTH",
"433 530 OFFCURVE",
"338 636 OFFCURVE",
"32 636 CURVE",
"32 626 LINE",
"113 494 LINE",
"284 492 OFFCURVE",
"349 471 OFFCURVE",
"349 427 CURVE SMOOTH",
"349 400 OFFCURVE",
"323 369 OFFCURVE",
"195 369 CURVE SMOOTH",
"164 369 OFFCURVE",
"115 371 OFFCURVE",
"75 376 CURVE",
"75 366 LINE",
"138 257 LINE",
"304 249 OFFCURVE",
"365 223 OFFCURVE",
"365 184 CURVE SMOOTH",
"365 148 OFFCURVE",
"315 129 OFFCURVE",
"220 129 CURVE SMOOTH",
"171 129 OFFCURVE",
"97 134 OFFCURVE",
"46 142 CURVE",
"46 133 LINE",
"143 5 OFFCURVE",
"229 -122 OFFCURVE",
"306 -250 CURVE"
);
}
);
width = 489;
}
);
leftKerningGroup = Toto_I;
leftMetricsKey = "=u1E2A3*0.8";
rightKerningGroup = Toto_I;
rightMetricsKey = u1E2A3;
unicode = 1E2A1;
script = default;
category = Letter;
subCategory = Other;
},
{
glyphname = u1E2A3;
lastChange = "2021-12-16 15:11:45 +0000";
layers = (
{
anchors = (
{
name = bottom;
position = "{328, 0}";
},
{
name = top;
position = "{328, 622}";
}
);
layerId = "E40B9561-B6E0-4D94-A2F7-63596B9AF675";
paths = (
{
closed = 1;
nodes = (
"500 -10 OFFCURVE",
"618 123 OFFCURVE",
"618 313 CURVE SMOOTH",
"618 502 OFFCURVE",
"503 632 OFFCURVE",
"336 632 CURVE SMOOTH",
"166 632 OFFCURVE",
"48 499 OFFCURVE",
"48 309 CURVE SMOOTH",
"48 120 OFFCURVE",
"163 -10 OFFCURVE",
"330 -10 CURVE SMOOTH"
);
},
{
closed = 1;
nodes = (
"184 82 OFFCURVE",
"104 162 OFFCURVE",
"104 295 CURVE SMOOTH",
"104 442 OFFCURVE",
"202 540 OFFCURVE",
"350 540 CURVE SMOOTH",
"482 540 OFFCURVE",
"562 460 OFFCURVE",
"562 327 CURVE SMOOTH",
"562 180 OFFCURVE",
"463 82 OFFCURVE",
"316 82 CURVE SMOOTH"
);
},
{
closed = 1;
nodes = (
"369 247 OFFCURVE",
"394 274 OFFCURVE",
"394 312 CURVE SMOOTH",
"394 350 OFFCURVE",
"370 375 OFFCURVE",
"334 375 CURVE SMOOTH",
"297 375 OFFCURVE",
"272 348 OFFCURVE",
"272 310 CURVE SMOOTH",
"272 272 OFFCURVE",
"296 247 OFFCURVE",
"332 247 CURVE SMOOTH"
);
}
);
width = 666;
},
{
anchors = (
{
name = bottom;
position = "{339, 0}";
},
{
name = top;
position = "{339, 622}";
}
);
layerId = "D419D424-3725-4B78-A608-932C6DF68265";
paths = (
{
closed = 1;
nodes = (
"532 -10 OFFCURVE",
"644 126 OFFCURVE",
"644 319 CURVE SMOOTH",
"644 525 OFFCURVE",
"520 636 OFFCURVE",
"344 636 CURVE SMOOTH",
"151 636 OFFCURVE",
"40 500 OFFCURVE",
"40 309 CURVE SMOOTH",
"40 105 OFFCURVE",
"163 -10 OFFCURVE",
"340 -10 CURVE SMOOTH"
);
},
{
closed = 1;
nodes = (
"198 136 OFFCURVE",
"124 190 OFFCURVE",
"124 292 CURVE SMOOTH",
"124 413 OFFCURVE",
"229 490 OFFCURVE",
"369 490 CURVE SMOOTH",
"486 490 OFFCURVE",
"560 436 OFFCURVE",
"560 334 CURVE SMOOTH",
"560 213 OFFCURVE",
"455 136 OFFCURVE",
"315 136 CURVE SMOOTH"
);
},
{
closed = 1;
nodes = (
"393 223 OFFCURVE",
"429 258 OFFCURVE",
"429 314 CURVE SMOOTH",
"429 370 OFFCURVE",
"393 403 OFFCURVE",
"343 403 CURVE SMOOTH",
"291 403 OFFCURVE",
"255 368 OFFCURVE",
"255 312 CURVE SMOOTH",
"255 256 OFFCURVE",
"290 223 OFFCURVE",
"341 223 CURVE SMOOTH"
);
}
);
width = 684;
}
);
leftKerningGroup = Toto_IU;
rightKerningGroup = Toto_IU;
rightMetricsKey = "=|";
unicode = 1E2A3;
script = default;
category = Letter;
subCategory = Other;
},
{
glyphname = u1E2A5;
lastChange = "2021-12-16 15:11:45 +0000";
layers = (
{
anchors = (
{
name = top;
position = "{290, 620}";
}
);
components = (
{
name = u1E29E;
transform = "{-1, 0, 0, -1, 608, 622}";
}
);
layerId = "E40B9561-B6E0-4D94-A2F7-63596B9AF675";
paths = (
{
closed = 1;
nodes = (
"340 263 OFFCURVE",
"365 290 OFFCURVE",
"365 328 CURVE SMOOTH",
"365 366 OFFCURVE",
"341 391 OFFCURVE",
"305 391 CURVE SMOOTH",
"268 391 OFFCURVE",
"243 364 OFFCURVE",
"243 326 CURVE SMOOTH",
"243 288 OFFCURVE",
"267 263 OFFCURVE",
"303 263 CURVE SMOOTH"
);
}
);
width = 608;
},
{
anchors = (
{
name = top;
position = "{295, 620}";
}
);
components = (
{
name = u1E29E;
transform = "{-1, 0, 0, -1, 628, 626}";
}
);
layerId = "D419D424-3725-4B78-A608-932C6DF68265";
paths = (
{
closed = 1;
nodes = (
"369 231 OFFCURVE",
"405 266 OFFCURVE",
"405 322 CURVE SMOOTH",
"405 378 OFFCURVE",
"369 411 OFFCURVE",
"319 411 CURVE SMOOTH",
"267 411 OFFCURVE",
"231 376 OFFCURVE",
"231 320 CURVE SMOOTH",
"231 264 OFFCURVE",
"266 231 OFFCURVE",
"317 231 CURVE SMOOTH"
);
}
);
width = 628;
}
);
leftMetricsKey = "=|u1E29E";
rightMetricsKey = "=|u1E29E";
unicode = 1E2A5;
script = default;
category = Letter;
subCategory = Other;
},
{
glyphname = u1E2A6;
lastChange = "2021-12-16 15:11:45 +0000";
layers = (
{
anchors = (
{
name = bottom;
position = "{253, 0}";
},
{
name = top;
position = "{253, 712}";
}
);
layerId = "E40B9561-B6E0-4D94-A2F7-63596B9AF675";
paths = (
{
closed = 1;
nodes = (
"400 -10 OFFCURVE",
"498 74 OFFCURVE",
"498 248 CURVE SMOOTH",
"498 434 OFFCURVE",
"391 602 OFFCURVE",
"197 732 CURVE",
"189 732 LINE",
"160 642 LINE",
"296 563 OFFCURVE",
"374 475 OFFCURVE",
"423 358 CURVE",
"428 368 LINE",
"388 418 OFFCURVE",
"328 445 OFFCURVE",
"259 445 CURVE SMOOTH",
"128 445 OFFCURVE",
"38 352 OFFCURVE",
"38 217 CURVE SMOOTH",
"38 82 OFFCURVE",
"128 -10 OFFCURVE",
"267 -10 CURVE SMOOTH"
);
},
{
closed = 1;
nodes = (
"152 78 OFFCURVE",
"94 126 OFFCURVE",
"94 206 CURVE SMOOTH",
"94 298 OFFCURVE",
"168 359 OFFCURVE",
"283 359 CURVE SMOOTH",
"385 359 OFFCURVE",
"442 311 OFFCURVE",
"442 231 CURVE SMOOTH",
"442 139 OFFCURVE",
"369 78 OFFCURVE",
"253 78 CURVE SMOOTH"
);
}
);
width = 541;
},
{
anchors = (
{
name = bottom;
position = "{252, 0}";
},
{
name = top;
position = "{252, 712}";
}
);
layerId = "D419D424-3725-4B78-A608-932C6DF68265";
paths = (
{
closed = 1;
nodes = (
"408 -10 OFFCURVE",
"516 76 OFFCURVE",
"516 252 CURVE SMOOTH",
"516 445 OFFCURVE",
"385 630 OFFCURVE",
"179 732 CURVE",
"171 732 LINE",
"119 595 LINE",
"277 536 OFFCURVE",
"377 457 OFFCURVE",
"426 361 CURVE",
"448 355 LINE",
"404 411 OFFCURVE",
"346 442 OFFCURVE",
"266 442 CURVE SMOOTH",
"127 442 OFFCURVE",
"32 345 OFFCURVE",
"32 211 CURVE SMOOTH",
"32 81 OFFCURVE",
"122 -10 OFFCURVE",
"267 -10 CURVE SMOOTH"
);
},
{
closed = 1;
nodes = (
"163 126 OFFCURVE",
"114 152 OFFCURVE",
"114 205 CURVE SMOOTH",
"114 272 OFFCURVE",
"190 312 OFFCURVE",
"302 312 CURVE SMOOTH",
"385 312 OFFCURVE",
"434 289 OFFCURVE",
"434 236 CURVE SMOOTH",
"434 170 OFFCURVE",
"358 126 OFFCURVE",
"246 126 CURVE SMOOTH"
);
}
);
width = 552;
}
);
leftMetricsKey = "=u1E2A3*0.8";
rightMetricsKey = "=u1E2A3*0.9";
unicode = 1E2A6;
script = default;
category = Letter;
subCategory = Other;
},
{
glyphname = u1E2A8;
lastChange = "2021-12-16 15:11:45 +0000";
layers = (
{
anchors = (
{
name = bottom;
position = "{269, 0}";
},
{
name = top;
position = "{269, 622}";
}
);
layerId = "E40B9561-B6E0-4D94-A2F7-63596B9AF675";
paths = (
{
closed = 1;
nodes = (
"438 -12 OFFCURVE",
"549 118 OFFCURVE",
"549 310 CURVE SMOOTH",
"549 501 OFFCURVE",
"438 630 OFFCURVE",
"273 630 CURVE SMOOTH",
"189 630 OFFCURVE",
"110 598 OFFCURVE",
"53 541 CURVE",
"53 531 LINE",
"104 470 LINE",
"157 516 OFFCURVE",
"217 538 OFFCURVE",
"287 538 CURVE SMOOTH",
"417 538 OFFCURVE",
"493 459 OFFCURVE",
"493 325 CURVE SMOOTH",
"493 176 OFFCURVE",
"400 80 OFFCURVE",
"257 80 CURVE SMOOTH",
"181 80 OFFCURVE",
"117 105 OFFCURVE",
"70 153 CURVE",
"38 108 LINE",
"98 29 OFFCURVE",
"178 -12 OFFCURVE",
"273 -12 CURVE SMOOTH"
);
}
);
width = 597;
},
{
anchors = (
{
name = bottom;
position = "{279, 0}";
},
{
name = top;
position = "{279, 622}";
}
);
layerId = "D419D424-3725-4B78-A608-932C6DF68265";
paths = (
{
closed = 1;
nodes = (
"461 -10 OFFCURVE",
"576 121 OFFCURVE",
"576 319 CURVE SMOOTH",
"576 512 OFFCURVE",
"465 636 OFFCURVE",
"293 636 CURVE SMOOTH",
"197 636 OFFCURVE",
"110 598 OFFCURVE",
"44 528 CURVE",
"44 518 LINE",
"122 416 LINE",
"178 465 OFFCURVE",
"245 490 OFFCURVE",
"319 490 CURVE SMOOTH",
"430 490 OFFCURVE",
"492 435 OFFCURVE",
"492 336 CURVE SMOOTH",
"492 215 OFFCURVE",
"398 136 OFFCURVE",
"255 136 CURVE SMOOTH",
"177 136 OFFCURVE",
"116 160 OFFCURVE",
"73 197 CURVE",
"32 147 LINE",
"87 50 OFFCURVE",
"178 -10 OFFCURVE",
"289 -10 CURVE SMOOTH"
);
}
);
width = 616;
}
);
leftMetricsKey = "=u1E2A3*0.8";
rightKerningGroup = Toto_IU;
rightMetricsKey = u1E2A3;
unicode = 1E2A8;
script = default;
category = Letter;
subCategory = Other;
},
{
glyphname = u1E2AA;
lastChange = "2021-12-16 15:11:45 +0000";
layers = (
{
anchors = (
{
name = top;
position = "{263, 622}";
}
);
layerId = "E40B9561-B6E0-4D94-A2F7-63596B9AF675";
paths = (
{
closed = 1;
nodes = (
"202 -108 LINE",
"396 24 OFFCURVE",
"503 200 OFFCURVE",
"503 385 CURVE SMOOTH",
"503 555 OFFCURVE",
"406 632 OFFCURVE",
"277 632 CURVE SMOOTH",
"137 632 OFFCURVE",
"43 538 OFFCURVE",
"43 403 CURVE SMOOTH",
"43 268 OFFCURVE",
"136 177 OFFCURVE",
"260 177 CURVE SMOOTH",
"331 177 OFFCURVE",
"388 207 OFFCURVE",
"427 254 CURVE",
"424 264 LINE",
"376 148 OFFCURVE",
"299 60 OFFCURVE",
"165 -18 CURVE",
"194 -108 LINE"
);
},
{
closed = 1;
nodes = (
"156 263 OFFCURVE",
"99 311 OFFCURVE",
"99 391 CURVE SMOOTH",
"99 483 OFFCURVE",
"172 544 OFFCURVE",
"288 544 CURVE SMOOTH",
"390 544 OFFCURVE",
"447 496 OFFCURVE",
"447 416 CURVE SMOOTH",
"447 324 OFFCURVE",
"374 263 OFFCURVE",
"258 263 CURVE SMOOTH"
);
}
);
width = 541;
},
{
anchors = (
{
name = top;
position = "{274, 622}";
}
);
layerId = "D419D424-3725-4B78-A608-932C6DF68265";
paths = (
{
closed = 1;
nodes = (
"179 -108 LINE",
"383 -7 OFFCURVE",
"520 185 OFFCURVE",
"520 377 CURVE SMOOTH",
"520 534 OFFCURVE",
"429 636 OFFCURVE",
"287 636 CURVE SMOOTH",
"143 636 OFFCURVE",
"36 531 OFFCURVE",
"36 393 CURVE SMOOTH",
"36 265 OFFCURVE",
"128 182 OFFCURVE",
"265 182 CURVE SMOOTH",
"346 182 OFFCURVE",
"404 213 OFFCURVE",
"448 269 CURVE",
"426 263 LINE",
"377 167 OFFCURVE",
"277 88 OFFCURVE",
"119 29 CURVE",
"171 -108 LINE"
);
},
{
closed = 1;
nodes = (
"167 312 OFFCURVE",
"118 335 OFFCURVE",
"118 388 CURVE SMOOTH",
"118 455 OFFCURVE",
"195 500 OFFCURVE",
"304 500 CURVE SMOOTH",
"389 500 OFFCURVE",
"438 473 OFFCURVE",
"438 419 CURVE SMOOTH",
"438 352 OFFCURVE",
"362 312 OFFCURVE",
"250 312 CURVE SMOOTH"
);
}
);
width = 552;
}
);
leftKerningGroup = Toto_TA;
leftMetricsKey = "=|u1E2A6";
rightKerningGroup = Toto_O;
rightMetricsKey = "=|u1E2A6";
unicode = 1E2AA;
script = default;
category = Letter;
subCategory = Other;
},
{
glyphname = u1E2AB;
lastChange = "2021-12-16 15:11:45 +0000";
layers = (
{
anchors = (
{
name = bottom;
position = "{305, 0}";
},
{
name = top;
position = "{305, 622}";
}
);
layerId = "E40B9561-B6E0-4D94-A2F7-63596B9AF675";
paths = (
{
closed = 1;
nodes = (
"559 -10 LINE",
"559 589 LINE",
"491 632 LINE",
"483 632 LINE",
"483 35 LINE",
"551 -10 LINE"
);
},
{
closed = 1;
nodes = (
"158 -10 LINE",
"158 587 LINE",
"90 632 LINE",
"82 632 LINE",
"82 33 LINE",
"150 -10 LINE"
);
},
{
closed = 1;
nodes = (
"499 275 LINE",
"499 357 LINE",
"146 357 LINE",
"146 275 LINE"
);
}
);
width = 641;
},
{
anchors = (
{
name = bottom;
position = "{289, 0}";
},
{
name = top;
position = "{289, 622}";
}
);
layerId = "D419D424-3725-4B78-A608-932C6DF68265";
paths = (
{
closed = 1;
nodes = (
"590 -10 LINE",
"590 583 LINE",
"482 636 LINE",
"474 636 LINE",
"474 43 LINE",
"582 -10 LINE"
);
},
{
closed = 1;
nodes = (
"184 -10 LINE",
"184 583 LINE",
"76 636 LINE",
"68 636 LINE",
"68 43 LINE",
"176 -10 LINE"
);
},
{
closed = 1;
nodes = (
"519 255 LINE",
"519 377 LINE",
"130 377 LINE",
"130 255 LINE"
);
}
);
width = 658;
}
);
leftMetricsKey = "=u1E2A3*1.7";
rightMetricsKey = "=|";
unicode = 1E2AB;
script = default;
category = Letter;
subCategory = Other;
},
{
glyphname = u1E2AD;
lastChange = "2021-12-16 15:11:45 +0000";
layers = (
{
anchors = (
{
name = top;
position = "{310, 622}";
}
);
layerId = "E40B9561-B6E0-4D94-A2F7-63596B9AF675";
paths = (
{
closed = 1;
nodes = (
"90 -10 LINE",
"98 -10 LINE",
"186 142 OFFCURVE",
"281 337 OFFCURVE",
"349 543 CURVE",
"324 538 LINE",
"382 348 OFFCURVE",
"475 137 OFFCURVE",
"588 -10 CURVE",
"634 20 LINE",
"531 174 OFFCURVE",
"441 388 OFFCURVE",
"385 587 CURVE",
"311 632 LINE",
"302 632 LINE",
"210 372 OFFCURVE",
"109 173 OFFCURVE",
"25 33 CURVE"
);
}
);
width = 659;
},
{
anchors = (
{
name = top;
position = "{338, 622}";
}
);
layerId = "D419D424-3725-4B78-A608-932C6DF68265";
paths = (
{
closed = 1;
nodes = (
"137 -10 LINE",
"145 -10 LINE",
"233 143 OFFCURVE",
"329 340 OFFCURVE",
"397 547 CURVE",
"331 514 LINE",
"394 332 OFFCURVE",
"494 130 OFFCURVE",
"620 -10 CURVE",
"673 24 LINE",
"570 176 OFFCURVE",
"475 380 OFFCURVE",
"425 583 CURVE",
"314 636 LINE",
"305 636 LINE",
"210 381 OFFCURVE",
"106 185 OFFCURVE",
"20 48 CURVE"
);
}
);
width = 693;
}
);
leftKerningGroup = Toto_A;
rightKerningGroup = Toto_A;
rightMetricsKey = "=|";
unicode = 1E2AD;
script = default;
category = Letter;
subCategory = Other;
},
{
glyphname = u1E2AE;
lastChange = "2021-12-16 15:11:45 +0000";
layers = (
{
anchors = (
{
name = _top;
position = "{158, 620}";
},
{
name = top;
position = "{158, 920}";
}
);
layerId = "E40B9561-B6E0-4D94-A2F7-63596B9AF675";
paths = (
{
closed = 1;
nodes = (
"60 706 LINE",
"68 706 LINE",
"150 741 OFFCURVE",
"245 785 OFFCURVE",
"322 828 CURVE",
"306 920 LINE",
"297 920 LINE",
"223 868 OFFCURVE",
"129 814 OFFCURVE",
"50 770 CURVE"
);
}
);
width = 372;
},
{
anchors = (
{
name = _top;
position = "{170, 620}";
},
{
name = top;
position = "{170, 920}";
}
);
layerId = "D419D424-3725-4B78-A608-932C6DF68265";
paths = (
{
closed = 1;
nodes = (
"60 699 LINE",
"68 699 LINE",
"165 718 OFFCURVE",
"261 743 OFFCURVE",
"354 776 CURVE",
"328 920 LINE",
"319 920 LINE",
"235 863 OFFCURVE",
"138 813 OFFCURVE",
"50 770 CURVE"
);
}
);
width = 404;
}
);
rightMetricsKey = "=|";
unicode = 1E2AE;
script = default;
category = Mark;
subCategory = Nonspacing;
},
{
glyphname = breathbottom.comp;
lastChange = "2021-12-16 15:11:45 +0000";
layers = (
{
anchors = (
{
name = _bottom;
position = "{158, 0}";
}
);
layerId = "E40B9561-B6E0-4D94-A2F7-63596B9AF675";
paths = (
{
closed = 1;
nodes = (
"129 -194 OFFCURVE",
"223 -248 OFFCURVE",
"297 -300 CURVE",
"306 -300 LINE",
"322 -208 LINE",
"245 -165 OFFCURVE",
"150 -121 OFFCURVE",
"68 -86 CURVE",
"60 -86 LINE",
"50 -150 LINE"
);
}
);
width = 372;
},
{
anchors = (
{
name = _bottom;
position = "{170, 0}";
}
);
layerId = "D419D424-3725-4B78-A608-932C6DF68265";
paths = (
{
closed = 1;
nodes = (
"138 -193 OFFCURVE",
"235 -243 OFFCURVE",
"319 -300 CURVE",
"328 -300 LINE",
"354 -156 LINE",
"261 -123 OFFCURVE",
"165 -98 OFFCURVE",
"68 -79 CURVE",
"60 -79 LINE",
"50 -150 LINE"
);
}
);
width = 404;
}
);
rightMetricsKey = "=|";
script = "";
category = "";
subCategory = "";
},
{
glyphname = "breathbottom-I.comp";
lastChange = "2021-12-16 15:11:45 +0000";
layers = (
{
anchors = (
{
name = _bottom;
position = "{186, 0}";
}
);
layerId = "E40B9561-B6E0-4D94-A2F7-63596B9AF675";
paths = (
{
closed = 1;
nodes = (
"96 -213 OFFCURVE",
"149 -297 OFFCURVE",
"189 -375 CURVE",
"197 -375 LINE",
"232 -278 LINE",
"187 -214 OFFCURVE",
"126 -140 OFFCURVE",
"74 -78 CURVE",
"66 -78 LINE",
"50 -141 LINE"
);
}
);
width = 282;
},
{
anchors = (
{
name = _bottom;
position = "{181, 0}";
}
);
layerId = "D419D424-3725-4B78-A608-932C6DF68265";
paths = (
{
closed = 1;
nodes = (
"92 -190 OFFCURVE",
"135 -286 OFFCURVE",
"171 -375 CURVE",
"180 -375 LINE",
"244 -253 LINE",
"194 -182 OFFCURVE",
"133 -102 OFFCURVE",
"78 -35 CURVE",
"70 -35 LINE",
"50 -104 LINE"
);
}
);
width = 294;
}
);
rightMetricsKey = "=|";
script = "";
category = "";
subCategory = "";
},
{
glyphname = "breathbottom-AE.comp";
lastChange = "2021-12-16 15:11:45 +0000";
layers = (
{
anchors = (
{
name = _bottom;
position = "{86, 0}";
}
);
layerId = "E40B9561-B6E0-4D94-A2F7-63596B9AF675";
paths = (
{
closed = 1;
nodes = (
"115 -87 OFFCURVE",
"191 -171 OFFCURVE",
"250 -245 CURVE",
"259 -245 LINE",
"273 -148 LINE",
"214 -86 OFFCURVE",
"134 -14 OFFCURVE",
"66 47 CURVE",
"58 47 LINE",
"50 -17 LINE"
);
}
);
width = 323;
},
{
anchors = (
{
name = _bottom;
position = "{75, 0}";
}
);
layerId = "D419D424-3725-4B78-A608-932C6DF68265";
paths = (
{
closed = 1;
nodes = (
"122 -91 OFFCURVE",
"204 -169 OFFCURVE",
"273 -245 CURVE",
"282 -245 LINE",
"308 -101 LINE",
"234 -48 OFFCURVE",
"146 3 OFFCURVE",
"68 47 CURVE",
"60 47 LINE",
"50 -24 LINE"
);
}
);
width = 358;
}
);
rightMetricsKey = "=|";
script = "";
category = "";
subCategory = "";
},
{
glyphname = uni25CC;
lastChange = "2021-12-16 15:28:28 +0000";
layers = (
{
anchors = (
{
name = bottom;
position = "{297, 42}";
},
{
name = top;
position = "{297, 540}";
}
);
layerId = "E40B9561-B6E0-4D94-A2F7-63596B9AF675";
paths = (
{
closed = 1;
nodes = (
"469 423 OFFCURVE",
"481 435 OFFCURVE",
"481 449 CURVE SMOOTH",
"481 463 OFFCURVE",
"469 475 OFFCURVE",
"455 475 CURVE SMOOTH",
"441 475 OFFCURVE",
"429 463 OFFCURVE",
"429 449 CURVE SMOOTH",
"429 435 OFFCURVE",
"441 423 OFFCURVE",
"455 423 CURVE SMOOTH"
);
},
{
closed = 1;
nodes = (
"153 107 OFFCURVE",
"165 119 OFFCURVE",
"165 133 CURVE SMOOTH",
"165 147 OFFCURVE",
"153 159 OFFCURVE",
"139 159 CURVE SMOOTH",
"125 159 OFFCURVE",
"113 147 OFFCURVE",
"113 133 CURVE SMOOTH",
"113 119 OFFCURVE",
"125 107 OFFCURVE",
"139 107 CURVE SMOOTH"
);
},
{
closed = 1;
nodes = (
"227 60 OFFCURVE",
"239 72 OFFCURVE",
"239 86 CURVE SMOOTH",
"239 100 OFFCURVE",
"227 112 OFFCURVE",
"213 112 CURVE SMOOTH",
"199 112 OFFCURVE",
"187 100 OFFCURVE",
"187 86 CURVE SMOOTH",
"187 72 OFFCURVE",
"199 60 OFFCURVE",
"213 60 CURVE SMOOTH"
);
},
{
closed = 1;
nodes = (
"106 181 OFFCURVE",
"118 193 OFFCURVE",
"118 207 CURVE SMOOTH",
"118 221 OFFCURVE",
"106 233 OFFCURVE",
"92 233 CURVE SMOOTH",
"78 233 OFFCURVE",
"66 221 OFFCURVE",
"66 207 CURVE SMOOTH",
"66 193 OFFCURVE",
"78 181 OFFCURVE",
"92 181 CURVE SMOOTH"
);
},
{
closed = 1;
nodes = (
"311 42 OFFCURVE",
"323 54 OFFCURVE",
"323 68 CURVE SMOOTH",
"323 82 OFFCURVE",
"311 94 OFFCURVE",
"297 94 CURVE SMOOTH",
"283 94 OFFCURVE",
"271 82 OFFCURVE",
"271 68 CURVE SMOOTH",
"271 54 OFFCURVE",
"283 42 OFFCURVE",
"297 42 CURVE SMOOTH"
);
},
{
closed = 1;
nodes = (
"88 265 OFFCURVE",
"100 277 OFFCURVE",
"100 291 CURVE SMOOTH",
"100 305 OFFCURVE",
"88 317 OFFCURVE",
"74 317 CURVE SMOOTH",
"60 317 OFFCURVE",
"48 305 OFFCURVE",
"48 291 CURVE SMOOTH",
"48 277 OFFCURVE",
"60 265 OFFCURVE",
"74 265 CURVE SMOOTH"
);
},
{
closed = 1;
nodes = (
"395 60 OFFCURVE",
"407 72 OFFCURVE",
"407 86 CURVE SMOOTH",
"407 100 OFFCURVE",
"395 112 OFFCURVE",
"381 112 CURVE SMOOTH",
"367 112 OFFCURVE",
"355 100 OFFCURVE",
"355 86 CURVE SMOOTH",
"355 72 OFFCURVE",
"367 60 OFFCURVE",
"381 60 CURVE SMOOTH"
);
},
{
closed = 1;
nodes = (
"106 349 OFFCURVE",
"118 361 OFFCURVE",
"118 375 CURVE SMOOTH",
"118 389 OFFCURVE",
"106 401 OFFCURVE",
"92 401 CURVE SMOOTH",
"78 401 OFFCURVE",
"66 389 OFFCURVE",
"66 375 CURVE SMOOTH",
"66 361 OFFCURVE",
"78 349 OFFCURVE",
"92 349 CURVE SMOOTH"
);
},
{
closed = 1;
nodes = (
"153 423 OFFCURVE",
"165 435 OFFCURVE",
"165 449 CURVE SMOOTH",
"165 463 OFFCURVE",
"153 475 OFFCURVE",
"139 475 CURVE SMOOTH",
"125 475 OFFCURVE",
"113 463 OFFCURVE",
"113 449 CURVE SMOOTH",
"113 435 OFFCURVE",
"125 423 OFFCURVE",
"139 423 CURVE SMOOTH"
);
},
{
closed = 1;
nodes = (
"469 107 OFFCURVE",
"481 119 OFFCURVE",
"481 133 CURVE SMOOTH",
"481 147 OFFCURVE",
"469 159 OFFCURVE",
"455 159 CURVE SMOOTH",
"441 159 OFFCURVE",
"429 147 OFFCURVE",
"429 133 CURVE SMOOTH",
"429 119 OFFCURVE",
"441 107 OFFCURVE",
"455 107 CURVE SMOOTH"
);
},
{
closed = 1;
nodes = (
"227 470 OFFCURVE",
"239 482 OFFCURVE",
"239 496 CURVE SMOOTH",
"239 510 OFFCURVE",
"227 522 OFFCURVE",
"213 522 CURVE SMOOTH",
"199 522 OFFCURVE",
"187 510 OFFCURVE",
"187 496 CURVE SMOOTH",
"187 482 OFFCURVE",
"199 470 OFFCURVE",
"213 470 CURVE SMOOTH"
);
},
{
closed = 1;
nodes = (
"516 181 OFFCURVE",
"528 193 OFFCURVE",
"528 207 CURVE SMOOTH",
"528 221 OFFCURVE",
"516 233 OFFCURVE",
"502 233 CURVE SMOOTH",
"488 233 OFFCURVE",
"476 221 OFFCURVE",
"476 207 CURVE SMOOTH",
"476 193 OFFCURVE",
"488 181 OFFCURVE",
"502 181 CURVE SMOOTH"
);
},
{
closed = 1;
nodes = (
"311 488 OFFCURVE",
"323 500 OFFCURVE",
"323 514 CURVE SMOOTH",
"323 528 OFFCURVE",
"311 540 OFFCURVE",
"297 540 CURVE SMOOTH",
"283 540 OFFCURVE",
"271 528 OFFCURVE",
"271 514 CURVE SMOOTH",
"271 500 OFFCURVE",
"283 488 OFFCURVE",
"297 488 CURVE SMOOTH"
);
},
{
closed = 1;
nodes = (
"534 265 OFFCURVE",
"546 277 OFFCURVE",
"546 291 CURVE SMOOTH",
"546 305 OFFCURVE",
"534 317 OFFCURVE",
"520 317 CURVE SMOOTH",
"506 317 OFFCURVE",
"494 305 OFFCURVE",
"494 291 CURVE SMOOTH",
"494 277 OFFCURVE",
"506 265 OFFCURVE",
"520 265 CURVE SMOOTH"
);
},
{
closed = 1;
nodes = (
"395 470 OFFCURVE",
"407 482 OFFCURVE",
"407 496 CURVE SMOOTH",
"407 510 OFFCURVE",
"395 522 OFFCURVE",
"381 522 CURVE SMOOTH",
"367 522 OFFCURVE",
"355 510 OFFCURVE",
"355 496 CURVE SMOOTH",
"355 482 OFFCURVE",
"367 470 OFFCURVE",
"381 470 CURVE SMOOTH"
);
},
{
closed = 1;
nodes = (
"516 349 OFFCURVE",
"528 361 OFFCURVE",
"528 375 CURVE SMOOTH",
"528 389 OFFCURVE",
"516 401 OFFCURVE",
"502 401 CURVE SMOOTH",
"488 401 OFFCURVE",
"476 389 OFFCURVE",
"476 375 CURVE SMOOTH",
"476 361 OFFCURVE",
"488 349 OFFCURVE",
"502 349 CURVE SMOOTH"
);
}
);
width = 594;
},
{
anchors = (
{
name = bottom;
position = "{297, 42}";
},
{
name = top;
position = "{297, 540}";
}
);
layerId = "D419D424-3725-4B78-A608-932C6DF68265";
paths = (
{
closed = 1;
nodes = (
"469 423 OFFCURVE",
"481 435 OFFCURVE",
"481 449 CURVE SMOOTH",
"481 463 OFFCURVE",
"469 475 OFFCURVE",
"455 475 CURVE SMOOTH",
"441 475 OFFCURVE",
"429 463 OFFCURVE",
"429 449 CURVE SMOOTH",
"429 435 OFFCURVE",
"441 423 OFFCURVE",
"455 423 CURVE SMOOTH"
);
},
{
closed = 1;
nodes = (
"153 107 OFFCURVE",
"165 119 OFFCURVE",
"165 133 CURVE SMOOTH",
"165 147 OFFCURVE",
"153 159 OFFCURVE",
"139 159 CURVE SMOOTH",
"125 159 OFFCURVE",
"113 147 OFFCURVE",
"113 133 CURVE SMOOTH",
"113 119 OFFCURVE",
"125 107 OFFCURVE",
"139 107 CURVE SMOOTH"
);
},
{
closed = 1;
nodes = (
"227 60 OFFCURVE",
"239 72 OFFCURVE",
"239 86 CURVE SMOOTH",
"239 100 OFFCURVE",
"227 112 OFFCURVE",
"213 112 CURVE SMOOTH",
"199 112 OFFCURVE",
"187 100 OFFCURVE",
"187 86 CURVE SMOOTH",
"187 72 OFFCURVE",
"199 60 OFFCURVE",
"213 60 CURVE SMOOTH"
);
},
{
closed = 1;
nodes = (
"106 181 OFFCURVE",
"118 193 OFFCURVE",
"118 207 CURVE SMOOTH",
"118 221 OFFCURVE",
"106 233 OFFCURVE",
"92 233 CURVE SMOOTH",
"78 233 OFFCURVE",
"66 221 OFFCURVE",
"66 207 CURVE SMOOTH",
"66 193 OFFCURVE",
"78 181 OFFCURVE",
"92 181 CURVE SMOOTH"
);
},
{
closed = 1;
nodes = (
"311 42 OFFCURVE",
"323 54 OFFCURVE",
"323 68 CURVE SMOOTH",
"323 82 OFFCURVE",
"311 94 OFFCURVE",
"297 94 CURVE SMOOTH",
"283 94 OFFCURVE",
"271 82 OFFCURVE",
"271 68 CURVE SMOOTH",
"271 54 OFFCURVE",
"283 42 OFFCURVE",
"297 42 CURVE SMOOTH"
);
},
{
closed = 1;
nodes = (
"88 265 OFFCURVE",
"100 277 OFFCURVE",
"100 291 CURVE SMOOTH",
"100 305 OFFCURVE",
"88 317 OFFCURVE",
"74 317 CURVE SMOOTH",
"60 317 OFFCURVE",
"48 305 OFFCURVE",
"48 291 CURVE SMOOTH",
"48 277 OFFCURVE",
"60 265 OFFCURVE",
"74 265 CURVE SMOOTH"
);
},
{
closed = 1;
nodes = (
"395 60 OFFCURVE",
"407 72 OFFCURVE",
"407 86 CURVE SMOOTH",
"407 100 OFFCURVE",
"395 112 OFFCURVE",
"381 112 CURVE SMOOTH",
"367 112 OFFCURVE",
"355 100 OFFCURVE",
"355 86 CURVE SMOOTH",
"355 72 OFFCURVE",
"367 60 OFFCURVE",
"381 60 CURVE SMOOTH"
);
},
{
closed = 1;
nodes = (
"106 349 OFFCURVE",
"118 361 OFFCURVE",
"118 375 CURVE SMOOTH",
"118 389 OFFCURVE",
"106 401 OFFCURVE",
"92 401 CURVE SMOOTH",
"78 401 OFFCURVE",
"66 389 OFFCURVE",
"66 375 CURVE SMOOTH",
"66 361 OFFCURVE",
"78 349 OFFCURVE",
"92 349 CURVE SMOOTH"
);
},
{
closed = 1;
nodes = (
"153 423 OFFCURVE",
"165 435 OFFCURVE",
"165 449 CURVE SMOOTH",
"165 463 OFFCURVE",
"153 475 OFFCURVE",
"139 475 CURVE SMOOTH",
"125 475 OFFCURVE",
"113 463 OFFCURVE",
"113 449 CURVE SMOOTH",
"113 435 OFFCURVE",
"125 423 OFFCURVE",
"139 423 CURVE SMOOTH"
);
},
{
closed = 1;
nodes = (
"469 107 OFFCURVE",
"481 119 OFFCURVE",
"481 133 CURVE SMOOTH",
"481 147 OFFCURVE",
"469 159 OFFCURVE",
"455 159 CURVE SMOOTH",
"441 159 OFFCURVE",
"429 147 OFFCURVE",
"429 133 CURVE SMOOTH",
"429 119 OFFCURVE",
"441 107 OFFCURVE",
"455 107 CURVE SMOOTH"
);
},
{
closed = 1;
nodes = (
"227 470 OFFCURVE",
"239 482 OFFCURVE",
"239 496 CURVE SMOOTH",
"239 510 OFFCURVE",
"227 522 OFFCURVE",
"213 522 CURVE SMOOTH",
"199 522 OFFCURVE",
"187 510 OFFCURVE",
"187 496 CURVE SMOOTH",
"187 482 OFFCURVE",
"199 470 OFFCURVE",
"213 470 CURVE SMOOTH"
);
},
{
closed = 1;
nodes = (
"516 181 OFFCURVE",
"528 193 OFFCURVE",
"528 207 CURVE SMOOTH",
"528 221 OFFCURVE",
"516 233 OFFCURVE",
"502 233 CURVE SMOOTH",
"488 233 OFFCURVE",
"476 221 OFFCURVE",
"476 207 CURVE SMOOTH",
"476 193 OFFCURVE",
"488 181 OFFCURVE",
"502 181 CURVE SMOOTH"
);
},
{
closed = 1;
nodes = (
"311 488 OFFCURVE",
"323 500 OFFCURVE",
"323 514 CURVE SMOOTH",
"323 528 OFFCURVE",
"311 540 OFFCURVE",
"297 540 CURVE SMOOTH",
"283 540 OFFCURVE",
"271 528 OFFCURVE",
"271 514 CURVE SMOOTH",
"271 500 OFFCURVE",
"283 488 OFFCURVE",
"297 488 CURVE SMOOTH"
);
},
{
closed = 1;
nodes = (
"534 265 OFFCURVE",
"546 277 OFFCURVE",
"546 291 CURVE SMOOTH",
"546 305 OFFCURVE",
"534 317 OFFCURVE",
"520 317 CURVE SMOOTH",
"506 317 OFFCURVE",
"494 305 OFFCURVE",
"494 291 CURVE SMOOTH",
"494 277 OFFCURVE",
"506 265 OFFCURVE",
"520 265 CURVE SMOOTH"
);
},
{
closed = 1;
nodes = (
"395 470 OFFCURVE",
"407 482 OFFCURVE",
"407 496 CURVE SMOOTH",
"407 510 OFFCURVE",
"395 522 OFFCURVE",
"381 522 CURVE SMOOTH",
"367 522 OFFCURVE",
"355 510 OFFCURVE",
"355 496 CURVE SMOOTH",
"355 482 OFFCURVE",
"367 470 OFFCURVE",
"381 470 CURVE SMOOTH"
);
},
{
closed = 1;
nodes = (
"516 349 OFFCURVE",
"528 361 OFFCURVE",
"528 375 CURVE SMOOTH",
"528 389 OFFCURVE",
"516 401 OFFCURVE",
"502 401 CURVE SMOOTH",
"488 401 OFFCURVE",
"476 389 OFFCURVE",
"476 375 CURVE SMOOTH",
"476 361 OFFCURVE",
"488 349 OFFCURVE",
"502 349 CURVE SMOOTH"
);
}
);
width = 594;
}
);
unicode = 25CC;
script = default;
category = Letter;
subCategory = Other;
},
